<svg width="32" height="22" viewBox="0 0 32 22" fill="none" xmlns="http://www.w3.org/2000/svg">
<g id="Cellular Signal/Light/1 Bar">
<path id="Bar 1" d="M3.55556 13.2H1.77778C0.795938 13.2 0 14.1849 0 15.4V19.8C0 21.015 0.795938 22 1.77778 22H3.55556C4.5374 22 5.33333 21.015 5.33333 19.8V15.4C5.33333 14.1849 4.5374 13.2 3.55556 13.2Z" fill="black"/>
<path id="Bar 2" opacity="0.25" d="M12.4444 8.80005H10.6667C9.68483 8.80005 8.88889 9.78502 8.88889 11V19.8C8.88889 21.0151 9.68483 22 10.6667 22H12.4444C13.4263 22 14.2222 21.0151 14.2222 19.8V11C14.2222 9.78502 13.4263 8.80005 12.4444 8.80005Z" fill="black"/>
<path id="Bar 3" opacity="0.25" d="M21.3333 4.40002H19.5556C18.5737 4.40002 17.7778 5.385 17.7778 6.60002V19.8C17.7778 21.0151 18.5737 22 19.5556 22H21.3333C22.3152 22 23.1111 21.0151 23.1111 19.8V6.60002C23.1111 5.385 22.3152 4.40002 21.3333 4.40002Z" fill="black"/>
<path id="Bar 4" opacity="0.25" d="M30.2222 0H28.4444C27.4626 0 26.6667 0.984973 26.6667 2.2V19.8C26.6667 21.015 27.4626 22 28.4444 22H30.2222C31.2041 22 32 21.015 32 19.8V2.2C32 0.984973 31.2041 0 30.2222 0Z" fill="black"/>
</g>
</svg>
