<svg width="116" height="44" viewBox="0 0 116 44" fill="none" xmlns="http://www.w3.org/2000/svg">
<rect x="0.5" y="0.5" width="115" height="43" rx="7.5" fill="white"/>
<rect x="0.5" y="0.5" width="115" height="43" rx="7.5" stroke="#34A853"/>
<path d="M25.5092 28V16.8H30.5812C31.3065 16.8 31.9572 16.9547 32.5332 17.264C33.1092 17.5733 33.5625 18 33.8932 18.544C34.2345 19.0773 34.4052 19.6907 34.4052 20.384C34.4052 21.088 34.2345 21.7173 33.8932 22.272C33.5625 22.8267 33.1092 23.2693 32.5332 23.6C31.9572 23.92 31.3065 24.08 30.5812 24.08H28.1172V28H25.5092ZM31.7332 28L28.8852 22.928L31.6852 22.528L34.8532 28.016L31.7332 28ZM28.1172 21.952H30.3412C30.6185 21.952 30.8585 21.8933 31.0612 21.776C31.2745 21.648 31.4345 21.4773 31.5412 21.264C31.6585 21.0507 31.7172 20.8053 31.7172 20.528C31.7172 20.24 31.6479 19.9893 31.5092 19.776C31.3812 19.5627 31.1945 19.3973 30.9492 19.28C30.7145 19.152 30.4319 19.088 30.1012 19.088H28.1172V21.952ZM39.2586 28.16C38.6399 28.16 38.1066 28.0267 37.6586 27.76C37.2106 27.4827 36.8639 27.0933 36.6186 26.592C36.3839 26.08 36.2666 25.4667 36.2666 24.752V19.504H38.8426V24.368C38.8426 24.8907 38.9652 25.3013 39.2106 25.6C39.4666 25.888 39.8186 26.032 40.2666 26.032C40.4906 26.032 40.6932 26 40.8746 25.936C41.0559 25.8613 41.2106 25.76 41.3386 25.632C41.4772 25.4933 41.5839 25.3333 41.6586 25.152C41.7332 24.9707 41.7706 24.7733 41.7706 24.56V19.504H44.3466V28H41.9306L41.8346 26.256L42.2986 26.064C42.1812 26.4587 41.9679 26.816 41.6586 27.136C41.3599 27.456 41.0026 27.7067 40.5866 27.888C40.1706 28.0693 39.7279 28.16 39.2586 28.16ZM46.6438 28V19.504H49.0918L49.1878 21.232L48.6598 21.424C48.7771 21.04 48.9851 20.6933 49.2838 20.384C49.5931 20.064 49.9611 19.808 50.3878 19.616C50.8145 19.424 51.2625 19.328 51.7318 19.328C52.3718 19.328 52.9105 19.4613 53.3478 19.728C53.7851 19.984 54.1105 20.3733 54.3238 20.896C54.5478 21.408 54.6598 22.0427 54.6598 22.8V28H52.0838V22.992C52.0838 22.6507 52.0358 22.368 51.9398 22.144C51.8438 21.92 51.6998 21.7547 51.5078 21.648C51.3158 21.5413 51.0758 21.4933 50.7878 21.504C50.5638 21.504 50.3558 21.5413 50.1638 21.616C49.9718 21.68 49.8011 21.7813 49.6518 21.92C49.5131 22.048 49.4065 22.1973 49.3318 22.368C49.2571 22.5387 49.2198 22.7307 49.2198 22.944V28H47.9238C47.6465 28 47.3958 28 47.1718 28C46.9585 28 46.7825 28 46.6438 28ZM56.8157 28V19.504H59.2637L59.3597 21.232L58.8317 21.424C58.949 21.04 59.157 20.6933 59.4557 20.384C59.765 20.064 60.133 19.808 60.5597 19.616C60.9864 19.424 61.4344 19.328 61.9037 19.328C62.5437 19.328 63.0824 19.4613 63.5197 19.728C63.957 19.984 64.2824 20.3733 64.4957 20.896C64.7197 21.408 64.8317 22.0427 64.8317 22.8V28H62.2557V22.992C62.2557 22.6507 62.2077 22.368 62.1117 22.144C62.0157 21.92 61.8717 21.7547 61.6797 21.648C61.4877 21.5413 61.2477 21.4933 60.9597 21.504C60.7357 21.504 60.5277 21.5413 60.3357 21.616C60.1437 21.68 59.973 21.7813 59.8237 21.92C59.685 22.048 59.5784 22.1973 59.5037 22.368C59.429 22.5387 59.3917 22.7307 59.3917 22.944V28H58.0957C57.8184 28 57.5677 28 57.3437 28C57.1304 28 56.9544 28 56.8157 28ZM67.1316 28V19.504H69.7076V28H67.1316ZM68.4276 17.824C67.9369 17.824 67.5529 17.712 67.2756 17.488C67.0089 17.2533 66.8756 16.9227 66.8756 16.496C66.8756 16.1013 67.0142 15.7813 67.2916 15.536C67.5689 15.2907 67.9476 15.168 68.4276 15.168C68.8969 15.168 69.2649 15.2853 69.5316 15.52C69.8089 15.744 69.9476 16.0693 69.9476 16.496C69.9476 16.8907 69.8089 17.2107 69.5316 17.456C69.2649 17.7013 68.8969 17.824 68.4276 17.824ZM72.1282 28V19.504H74.5762L74.6722 21.232L74.1442 21.424C74.2615 21.04 74.4695 20.6933 74.7682 20.384C75.0775 20.064 75.4455 19.808 75.8722 19.616C76.2989 19.424 76.7469 19.328 77.2162 19.328C77.8562 19.328 78.3949 19.4613 78.8322 19.728C79.2695 19.984 79.5949 20.3733 79.8082 20.896C80.0322 21.408 80.1442 22.0427 80.1442 22.8V28H77.5682V22.992C77.5682 22.6507 77.5202 22.368 77.4242 22.144C77.3282 21.92 77.1842 21.7547 76.9922 21.648C76.8002 21.5413 76.5602 21.4933 76.2722 21.504C76.0482 21.504 75.8402 21.5413 75.6482 21.616C75.4562 21.68 75.2855 21.7813 75.1362 21.92C74.9975 22.048 74.8909 22.1973 74.8162 22.368C74.7415 22.5387 74.7042 22.7307 74.7042 22.944V28H73.4082C73.1309 28 72.8802 28 72.6562 28C72.4429 28 72.2669 28 72.1282 28ZM86.1881 31.68C85.5054 31.68 84.8174 31.5787 84.1241 31.376C83.4414 31.184 82.8867 30.928 82.4601 30.608L83.3561 28.784C83.6974 29.0187 84.0814 29.2 84.5081 29.328C84.9454 29.4667 85.3987 29.536 85.8681 29.536C86.4121 29.536 86.8547 29.456 87.1961 29.296C87.5374 29.136 87.7881 28.896 87.9481 28.576C88.1187 28.256 88.2041 27.856 88.2041 27.376V25.968L88.6841 26.064C88.6201 26.3947 88.4387 26.704 88.1401 26.992C87.8521 27.28 87.4947 27.5093 87.0681 27.68C86.6414 27.8507 86.1934 27.936 85.7241 27.936C84.9561 27.936 84.2681 27.76 83.6601 27.408C83.0521 27.0453 82.5721 26.5493 82.2201 25.92C81.8787 25.28 81.7081 24.544 81.7081 23.712C81.7081 22.8587 81.8787 22.1013 82.2201 21.44C82.5721 20.7787 83.0467 20.2613 83.6441 19.888C84.2414 19.5147 84.9134 19.328 85.6601 19.328C85.9694 19.328 86.2681 19.3653 86.5561 19.44C86.8547 19.504 87.1267 19.6 87.3721 19.728C87.6281 19.856 87.8521 20 88.0441 20.16C88.2467 20.32 88.4121 20.496 88.5401 20.688C88.6681 20.88 88.7481 21.072 88.7801 21.264L88.2521 21.424L88.3481 19.504H90.7961V27.296C90.7961 27.9893 90.6894 28.608 90.4761 29.152C90.2734 29.696 89.9694 30.1547 89.5641 30.528C89.1694 30.9013 88.6894 31.184 88.1241 31.376C87.5587 31.5787 86.9134 31.68 86.1881 31.68ZM86.2521 25.936C86.6681 25.936 87.0254 25.8453 87.3241 25.664C87.6334 25.4827 87.8681 25.2267 88.0281 24.896C88.1987 24.5653 88.2841 24.1813 88.2841 23.744C88.2841 23.2853 88.1987 22.8907 88.0281 22.56C87.8681 22.2293 87.6334 21.9733 87.3241 21.792C87.0254 21.6 86.6681 21.504 86.2521 21.504C85.8574 21.504 85.5107 21.6 85.2121 21.792C84.9134 21.9733 84.6787 22.2293 84.5081 22.56C84.3481 22.8907 84.2681 23.28 84.2681 23.728C84.2681 24.176 84.3481 24.5653 84.5081 24.896C84.6787 25.2267 84.9134 25.4827 85.2121 25.664C85.5107 25.8453 85.8574 25.936 86.2521 25.936Z" fill="#34A853"/>
</svg>
