<svg width="86" height="44" viewBox="0 0 86 44" fill="none" xmlns="http://www.w3.org/2000/svg">
<rect x="0.5" y="0.5" width="85" height="43" rx="7.5" fill="white"/>
<rect x="0.5" y="0.5" width="85" height="43" rx="7.5" stroke="#BC0E0E"/>
<path d="M29.5028 28.16C28.3935 28.16 27.4548 27.968 26.6868 27.584C25.9295 27.1893 25.2788 26.6347 24.7348 25.92L26.3988 24.048C26.9215 24.7627 27.4495 25.2427 27.9828 25.488C28.5161 25.7333 29.0655 25.856 29.6308 25.856C29.9188 25.856 30.1748 25.8187 30.3988 25.744C30.6335 25.6693 30.8148 25.5627 30.9428 25.424C31.0815 25.2747 31.1508 25.0987 31.1508 24.896C31.1508 24.736 31.1081 24.592 31.0228 24.464C30.9481 24.336 30.8415 24.224 30.7028 24.128C30.5641 24.032 30.4041 23.9467 30.2228 23.872C30.0415 23.7867 29.8388 23.7173 29.6148 23.664C29.4015 23.6107 29.1828 23.5627 28.9588 23.52C28.3401 23.392 27.8015 23.2267 27.3428 23.024C26.8948 22.8107 26.5161 22.56 26.2068 22.272C25.9081 21.9733 25.6841 21.6373 25.5348 21.264C25.3855 20.88 25.3108 20.448 25.3108 19.968C25.3108 19.2853 25.5028 18.688 25.8868 18.176C26.2815 17.664 26.7988 17.264 27.4388 16.976C28.0788 16.688 28.7721 16.544 29.5188 16.544C30.6068 16.544 31.4815 16.72 32.1428 17.072C32.8148 17.4133 33.3481 17.888 33.7428 18.496L32.0468 20.144C31.7161 19.7173 31.3375 19.3973 30.9108 19.184C30.4948 18.9707 30.0575 18.864 29.5988 18.864C29.2895 18.864 29.0175 18.9013 28.7828 18.976C28.5481 19.0507 28.3668 19.1627 28.2388 19.312C28.1215 19.4507 28.0628 19.6213 28.0628 19.824C28.0628 19.9947 28.1108 20.1493 28.2068 20.288C28.3135 20.416 28.4575 20.528 28.6388 20.624C28.8201 20.72 29.0281 20.8053 29.2628 20.88C29.4975 20.944 29.7428 20.9973 29.9988 21.04C30.5855 21.1573 31.1135 21.312 31.5828 21.504C32.0628 21.696 32.4735 21.936 32.8148 22.224C33.1561 22.5013 33.4175 22.832 33.5988 23.216C33.7908 23.5893 33.8868 24.0213 33.8868 24.512C33.8868 25.28 33.7001 25.936 33.3268 26.48C32.9535 27.024 32.4361 27.44 31.7748 27.728C31.1135 28.016 30.3561 28.16 29.5028 28.16ZM36.3791 28V17.36H38.9551V28H36.3791ZM34.8751 21.76V19.504H40.5871V21.76H34.8751ZM45.9716 28.16C45.0969 28.16 44.3129 27.9733 43.6196 27.6C42.9262 27.216 42.3822 26.6933 41.9876 26.032C41.5929 25.36 41.3956 24.6027 41.3956 23.76C41.3956 22.896 41.5929 22.1333 41.9876 21.472C42.3822 20.8 42.9262 20.2773 43.6196 19.904C44.3129 19.52 45.0969 19.328 45.9716 19.328C46.8569 19.328 47.6409 19.52 48.3236 19.904C49.0169 20.2773 49.5609 20.8 49.9556 21.472C50.3502 22.1333 50.5476 22.896 50.5476 23.76C50.5476 24.6027 50.3502 25.36 49.9556 26.032C49.5609 26.6933 49.0169 27.216 48.3236 27.6C47.6409 27.9733 46.8569 28.16 45.9716 28.16ZM45.9716 25.952C46.3556 25.952 46.6916 25.856 46.9796 25.664C47.2782 25.472 47.5129 25.2107 47.6836 24.88C47.8542 24.5493 47.9342 24.176 47.9236 23.76C47.9342 23.3227 47.8542 22.9387 47.6836 22.608C47.5129 22.2667 47.2782 22.0053 46.9796 21.824C46.6916 21.632 46.3556 21.536 45.9716 21.536C45.5982 21.536 45.2622 21.632 44.9636 21.824C44.6649 22.016 44.4302 22.2773 44.2596 22.608C44.0889 22.9387 44.0036 23.3227 44.0036 23.76C44.0036 24.176 44.0889 24.5493 44.2596 24.88C44.4302 25.2107 44.6649 25.472 44.9636 25.664C45.2622 25.856 45.5982 25.952 45.9716 25.952ZM52.2219 31.52V19.504H54.6699L54.7819 21.376L54.2859 21.232C54.3499 20.8907 54.5259 20.5813 54.8139 20.304C55.1126 20.016 55.4806 19.7867 55.9179 19.616C56.3553 19.4347 56.8193 19.344 57.3099 19.344C58.0353 19.344 58.6806 19.5307 59.2459 19.904C59.8113 20.2773 60.2539 20.8 60.5739 21.472C60.9046 22.1333 61.0699 22.896 61.0699 23.76C61.0699 24.6027 60.9046 25.3547 60.5739 26.016C60.2539 26.6773 59.8059 27.2 59.2299 27.584C58.6646 27.9573 58.0193 28.144 57.2939 28.144C56.8033 28.144 56.3393 28.0533 55.9019 27.872C55.4646 27.68 55.0966 27.4347 54.7979 27.136C54.4993 26.8373 54.3073 26.512 54.2219 26.16L54.8139 25.92V31.52H52.2219ZM56.6699 25.968C57.0539 25.968 57.3846 25.8773 57.6619 25.696C57.9499 25.5147 58.1686 25.2587 58.3179 24.928C58.4779 24.5867 58.5579 24.1973 58.5579 23.76C58.5579 23.312 58.4779 22.9227 58.3179 22.592C58.1686 22.2507 57.9499 21.9893 57.6619 21.808C57.3846 21.616 57.0539 21.52 56.6699 21.52C56.2753 21.52 55.9339 21.616 55.6459 21.808C55.3579 21.9893 55.1339 22.2453 54.9739 22.576C54.8139 22.9067 54.7339 23.3013 54.7339 23.76C54.7339 24.1973 54.8139 24.5867 54.9739 24.928C55.1339 25.2587 55.3579 25.5147 55.6459 25.696C55.9339 25.8773 56.2753 25.968 56.6699 25.968Z" fill="#BC0E0E"/>
</svg>
