<svg width="115" height="44" viewBox="0 0 115 44" fill="none" xmlns="http://www.w3.org/2000/svg">
<rect x="0.5" y="0.5" width="114" height="43" rx="7.5" fill="white"/>
<rect x="0.5" y="0.5" width="114" height="43" rx="7.5" stroke="#FCCE59"/>
<path d="M29.4559 28.16C28.3466 28.16 27.4079 27.968 26.6399 27.584C25.8826 27.1893 25.2319 26.6347 24.6879 25.92L26.3519 24.048C26.8746 24.7627 27.4026 25.2427 27.9359 25.488C28.4693 25.7333 29.0186 25.856 29.5839 25.856C29.8719 25.856 30.1279 25.8187 30.3519 25.744C30.5866 25.6693 30.7679 25.5627 30.8959 25.424C31.0346 25.2747 31.1039 25.0987 31.1039 24.896C31.1039 24.736 31.0613 24.592 30.9759 24.464C30.9013 24.336 30.7946 24.224 30.6559 24.128C30.5173 24.032 30.3573 23.9467 30.1759 23.872C29.9946 23.7867 29.7919 23.7173 29.5679 23.664C29.3546 23.6107 29.1359 23.5627 28.9119 23.52C28.2933 23.392 27.7546 23.2267 27.2959 23.024C26.8479 22.8107 26.4693 22.56 26.1599 22.272C25.8613 21.9733 25.6373 21.6373 25.4879 21.264C25.3386 20.88 25.2639 20.448 25.2639 19.968C25.2639 19.2853 25.4559 18.688 25.8399 18.176C26.2346 17.664 26.7519 17.264 27.3919 16.976C28.0319 16.688 28.7253 16.544 29.4719 16.544C30.5599 16.544 31.4346 16.72 32.0959 17.072C32.7679 17.4133 33.3013 17.888 33.6959 18.496L31.9999 20.144C31.6693 19.7173 31.2906 19.3973 30.8639 19.184C30.4479 18.9707 30.0106 18.864 29.5519 18.864C29.2426 18.864 28.9706 18.9013 28.7359 18.976C28.5013 19.0507 28.3199 19.1627 28.1919 19.312C28.0746 19.4507 28.0159 19.6213 28.0159 19.824C28.0159 19.9947 28.0639 20.1493 28.1599 20.288C28.2666 20.416 28.4106 20.528 28.5919 20.624C28.7733 20.72 28.9813 20.8053 29.2159 20.88C29.4506 20.944 29.6959 20.9973 29.9519 21.04C30.5386 21.1573 31.0666 21.312 31.5359 21.504C32.0159 21.696 32.4266 21.936 32.7679 22.224C33.1093 22.5013 33.3706 22.832 33.5519 23.216C33.7439 23.5893 33.8399 24.0213 33.8399 24.512C33.8399 25.28 33.6533 25.936 33.2799 26.48C32.9066 27.024 32.3893 27.44 31.7279 27.728C31.0666 28.016 30.3093 28.16 29.4559 28.16ZM36.3322 28V17.36H38.9082V28H36.3322ZM34.8282 21.76V19.504H40.5402V21.76H34.8282ZM46.4687 28V22.784C46.4687 22.3467 46.346 22.0267 46.1007 21.824C45.866 21.6107 45.5354 21.504 45.1087 21.504C44.6927 21.504 44.3194 21.584 43.9887 21.744C43.6687 21.8933 43.3594 22.144 43.0607 22.496L41.5247 21.008C42.0367 20.4853 42.6234 20.0747 43.2847 19.776C43.946 19.4773 44.666 19.328 45.4447 19.328C46.1594 19.328 46.778 19.4347 47.3007 19.648C47.8234 19.8613 48.2287 20.1867 48.5167 20.624C48.8047 21.0613 48.9487 21.616 48.9487 22.288V28H46.4687ZM44.2607 28.16C43.7274 28.16 43.242 28.0533 42.8047 27.84C42.378 27.6267 42.0367 27.3333 41.7807 26.96C41.5354 26.576 41.4127 26.128 41.4127 25.616C41.4127 25.1787 41.4927 24.7947 41.6527 24.464C41.8127 24.1333 42.0474 23.8613 42.3567 23.648C42.6767 23.424 43.0714 23.2587 43.5407 23.152C44.0207 23.0347 44.5754 22.976 45.2047 22.976H47.7807L47.6367 24.592H45.2687C45.0447 24.592 44.8474 24.6133 44.6767 24.656C44.506 24.688 44.362 24.7467 44.2447 24.832C44.1274 24.9067 44.0367 24.9973 43.9727 25.104C43.9194 25.2107 43.8927 25.3387 43.8927 25.488C43.8927 25.648 43.9354 25.7867 44.0207 25.904C44.106 26.0213 44.218 26.112 44.3567 26.176C44.506 26.24 44.6767 26.272 44.8687 26.272C45.146 26.272 45.4074 26.2293 45.6527 26.144C45.9087 26.048 46.1327 25.9147 46.3247 25.744C46.5274 25.5733 46.6874 25.376 46.8047 25.152L47.2527 26.304C47.0287 26.6667 46.7567 26.9867 46.4367 27.264C46.1274 27.5413 45.786 27.76 45.4127 27.92C45.05 28.08 44.666 28.16 44.2607 28.16ZM51.0032 28V19.504H53.4512L53.5472 21.232L53.0192 21.424C53.1365 21.04 53.3445 20.6933 53.6432 20.384C53.9525 20.064 54.3205 19.808 54.7472 19.616C55.1739 19.424 55.6219 19.328 56.0912 19.328C56.7312 19.328 57.2699 19.4613 57.7072 19.728C58.1445 19.984 58.4699 20.3733 58.6832 20.896C58.9072 21.408 59.0192 22.0427 59.0192 22.8V28H56.4432V22.992C56.4432 22.6507 56.3952 22.368 56.2992 22.144C56.2032 21.92 56.0592 21.7547 55.8672 21.648C55.6752 21.5413 55.4352 21.4933 55.1472 21.504C54.9232 21.504 54.7152 21.5413 54.5232 21.616C54.3312 21.68 54.1605 21.7813 54.0112 21.92C53.8725 22.048 53.7659 22.1973 53.6912 22.368C53.6165 22.5387 53.5792 22.7307 53.5792 22.944V28H52.2832C52.0059 28 51.7552 28 51.5312 28C51.3179 28 51.1419 28 51.0032 28ZM64.4071 28.16C63.6817 28.16 63.0257 27.9733 62.4391 27.6C61.8631 27.2267 61.4097 26.7093 61.0791 26.048C60.7484 25.376 60.5831 24.6133 60.5831 23.76C60.5831 22.9067 60.7484 22.1493 61.0791 21.488C61.4097 20.816 61.8631 20.288 62.4391 19.904C63.0257 19.52 63.6871 19.328 64.4231 19.328C64.8071 19.328 65.1751 19.3867 65.5271 19.504C65.8897 19.6213 66.2097 19.7813 66.4871 19.984C66.7751 20.1867 67.0097 20.416 67.1911 20.672C67.3724 20.928 67.4844 21.2 67.5271 21.488L66.9031 21.632V16.16H69.4791V28H67.0791L66.9351 26.08L67.4471 26.176C67.4257 26.432 67.3297 26.6827 67.1591 26.928C66.9884 27.1627 66.7591 27.376 66.4711 27.568C66.1937 27.7493 65.8791 27.8933 65.5271 28C65.1751 28.1067 64.8017 28.16 64.4071 28.16ZM65.0471 26.032C65.4417 26.032 65.7777 25.9413 66.0551 25.76C66.3431 25.568 66.5671 25.3013 66.7271 24.96C66.8871 24.6187 66.9671 24.2187 66.9671 23.76C66.9671 23.2907 66.8871 22.8853 66.7271 22.544C66.5671 22.2027 66.3431 21.9413 66.0551 21.76C65.7777 21.568 65.4417 21.472 65.0471 21.472C64.6631 21.472 64.3271 21.568 64.0391 21.76C63.7617 21.9413 63.5431 22.2027 63.3831 22.544C63.2231 22.8853 63.1431 23.2907 63.1431 23.76C63.1431 24.2187 63.2231 24.6187 63.3831 24.96C63.5431 25.3013 63.7617 25.568 64.0391 25.76C64.3271 25.9413 64.6631 26.032 65.0471 26.032ZM76.7478 28.16C76.3638 28.16 75.9958 28.1067 75.6438 28C75.3025 27.8933 74.9878 27.7547 74.6998 27.584C74.4118 27.4027 74.1718 27.1947 73.9798 26.96C73.7985 26.7253 73.6811 26.48 73.6278 26.224L74.1878 26.032L74.0438 27.968H71.6438V16.16H74.2358V21.488L73.7078 21.312C73.7718 21.0453 73.8945 20.7947 74.0758 20.56C74.2571 20.3253 74.4811 20.1173 74.7478 19.936C75.0251 19.744 75.3291 19.5947 75.6598 19.488C75.9905 19.3813 76.3318 19.328 76.6838 19.328C77.4198 19.328 78.0705 19.52 78.6358 19.904C79.2118 20.288 79.6651 20.816 79.9958 21.488C80.3265 22.1493 80.4918 22.9067 80.4918 23.76C80.4918 24.6133 80.3265 25.3707 79.9958 26.032C79.6758 26.6933 79.2331 27.216 78.6678 27.6C78.1025 27.9733 77.4625 28.16 76.7478 28.16ZM76.0758 26C76.4598 26 76.7905 25.9093 77.0678 25.728C77.3558 25.536 77.5798 25.2747 77.7398 24.944C77.8998 24.6027 77.9798 24.208 77.9798 23.76C77.9798 23.3013 77.8998 22.9067 77.7398 22.576C77.5905 22.2347 77.3718 21.9733 77.0838 21.792C76.7958 21.6 76.4598 21.504 76.0758 21.504C75.6918 21.504 75.3558 21.6 75.0678 21.792C74.7798 21.9733 74.5558 22.2347 74.3958 22.576C74.2358 22.9067 74.1558 23.3013 74.1558 23.76C74.1558 24.208 74.2358 24.6027 74.3958 24.944C74.5558 25.2747 74.7798 25.536 75.0678 25.728C75.3558 25.9093 75.6918 26 76.0758 26ZM82.9506 31.68L84.8866 27.136L84.9186 28.48L80.8066 19.504H83.7186L85.5106 23.792C85.6066 23.9947 85.6972 24.224 85.7826 24.48C85.8679 24.736 85.9319 24.976 85.9746 25.2L85.6066 25.408C85.6706 25.248 85.7399 25.0453 85.8146 24.8C85.8999 24.5547 85.9906 24.2933 86.0866 24.016L87.6546 19.504H90.5826L86.9826 28L85.5266 31.68H82.9506Z" fill="#FCCE59"/>
</svg>
