<svg version="1.1" id="Layer_1" xmlns="http://www.w3.org/2000/svg" xmlns:xlink="http://www.w3.org/1999/xlink" x="0px" y="0px"
	 width="100%" viewBox="0 0 378 123" enable-background="new 0 0 378 123" xml:space="preserve">
<path fill="#B5C9DC" opacity="1.000000" stroke="none" 
	d="
M1.000002,105.000000 
	C1.000000,76.979103 1.000000,48.958210 1.295382,20.775768 
	C6.313457,12.929726 11.845140,6.065217 20.264721,2.097990 
	C20.333635,2.065518 20.095026,1.380397 20.000000,1.000000 
	C133.020889,1.000000 246.041794,1.000000 359.225159,1.289054 
	C367.166077,6.214923 373.854858,11.926472 377.905884,20.266785 
	C377.940582,20.338163 378.621033,20.095854 379.000000,20.000000 
	C379.000000,22.700014 379.000000,25.400026 378.751648,28.561930 
	C378.503326,29.023819 378.007721,29.063669 377.967316,28.704281 
	C376.957123,26.559629 375.987335,24.774364 374.999207,22.994576 
	C374.980835,23.000053 374.949158,23.021582 374.934021,22.679062 
	C373.949371,20.883900 372.979828,19.431255 371.895874,17.715057 
	C371.215607,16.954933 370.649750,16.458363 370.052032,15.602930 
	C369.010193,14.190250 368.000214,13.136436 366.700806,11.893673 
	C363.153381,6.978378 358.432953,5.198893 352.668640,4.681560 
	C350.932007,4.233218 349.449585,4.010006 347.967072,4.009768 
	C243.326126,3.993005 138.685165,3.989361 34.044239,4.033791 
	C32.306679,4.034528 30.569368,4.637976 28.614735,4.971707 
	C28.397528,4.983243 27.966370,5.041115 27.622478,5.025689 
	C26.465378,5.328317 25.652164,5.646369 24.527107,5.962605 
	C23.800543,5.987882 23.385822,6.014977 22.730675,6.125212 
	C22.271158,6.465786 22.052073,6.723218 21.616604,6.983629 
	C21.400225,6.986609 20.970999,7.042129 20.730755,7.125329 
	C20.271786,7.465990 20.053061,7.723449 19.559021,8.000769 
	C18.854721,8.328018 18.425737,8.635409 17.755877,9.056334 
	C17.287819,9.440544 17.060638,9.711220 16.587732,10.091419 
	C15.885508,10.481201 15.429007,10.761458 14.749078,11.117115 
	C14.242713,11.376921 14.081248,11.636817 13.893813,12.256556 
	C12.485497,13.973465 11.224625,15.406024 9.687571,17.017101 
	C8.918281,18.120615 8.425174,19.045612 7.958281,19.987286 
	C7.984496,20.003965 7.985704,19.941835 7.763935,20.047754 
	C7.254690,20.351873 7.088372,20.624081 7.012544,21.186691 
	C6.981876,21.403088 6.965260,21.839888 6.725112,22.033443 
	C6.337525,22.806837 6.190086,23.386677 6.014571,24.182274 
	C5.986495,24.398033 5.979684,24.833138 5.766120,24.973803 
	C5.382131,25.399929 5.211707,25.685392 5.011350,26.281311 
	C4.976162,27.007507 4.970908,27.423248 4.669309,28.153934 
	C4.249722,29.116507 4.019372,29.764030 4.018745,30.411776 
	C3.997639,52.204041 3.984446,73.996368 4.039212,95.788506 
	C4.041820,96.826019 4.674319,97.861954 5.030433,99.276649 
	C5.983578,105.451057 9.557859,109.503304 13.931797,113.404518 
	C15.978763,115.483299 17.995396,117.204483 20.249033,118.954803 
	C20.486036,118.983940 20.959389,119.047295 20.973845,119.393997 
	C20.999708,120.433952 21.011116,121.127190 20.649029,121.899620 
	C12.673309,119.863991 8.334062,113.984268 4.040982,108.009048 
	C3.220575,106.867180 2.023369,105.996040 1.000002,105.000000 
z"/>
<path fill="#D0DDEB" opacity="1.000000" stroke="none" 
	d="
M21.022524,121.820435 
	C21.011116,121.127190 20.999708,120.433952 21.392721,119.385742 
	C27.530258,119.680077 33.263374,120.329369 39.463676,120.987823 
	C44.953602,120.995232 49.976341,120.993484 55.467773,120.996544 
	C138.730682,121.002625 221.525375,121.154266 304.318756,120.889648 
	C322.872864,120.830353 341.555969,122.990868 359.998474,119.255043 
	C360.010406,119.709427 360.016479,119.891144 359.775940,120.349380 
	C354.829041,121.420303 350.129547,122.902054 345.428192,122.908043 
	C242.177780,123.039490 138.927155,123.001984 35.676598,123.047752 
	C33.784256,123.048592 31.892193,123.668793 30.000000,124.000000 
	C27.957682,124.000000 25.915365,124.000000 23.730026,123.707336 
	C22.732178,122.883263 21.877352,122.351852 21.022524,121.820435 
z"/>
<path fill="#FDFDFE" opacity="1.000000" stroke="none" 
	d="
M30.468658,124.000000 
	C31.892193,123.668793 33.784256,123.048592 35.676598,123.047752 
	C138.927155,123.001984 242.177780,123.039490 345.428192,122.908043 
	C350.129547,122.902054 354.829041,121.420303 360.073364,120.304108 
	C361.089172,119.658615 361.560974,119.334915 362.015869,119.002785 
	C361.999023,118.994354 362.000183,119.032059 362.228394,118.922318 
	C362.648682,118.540741 362.840759,118.268913 363.012207,117.997887 
	C362.991577,117.998688 363.006989,118.037003 363.407501,118.024124 
	C364.608856,118.018318 365.409668,118.025398 366.039825,118.347000 
	C364.484619,119.531990 363.033691,120.315125 361.736877,121.300964 
	C360.725250,122.069992 359.905182,123.090965 359.000000,124.000000 
	C249.645767,124.000000 140.291550,124.000000 30.468658,124.000000 
z"/>
<path fill="#030404" opacity="1.000000" stroke="none" 
	d="
M359.469055,124.000000 
	C359.905182,123.090965 360.725250,122.069992 361.736877,121.300964 
	C363.033691,120.315125 364.484619,119.531990 366.345520,118.234528 
	C369.226166,115.274033 371.630432,112.740532 374.352570,110.029709 
	C376.113647,107.901581 377.556824,105.950783 379.000000,104.000000 
	C379.000000,110.592728 379.000000,117.185463 379.000000,124.000000 
	C372.647736,124.000000 366.292908,124.000000 359.469055,124.000000 
z"/>
<path fill="#000101" opacity="1.000000" stroke="none" 
	d="
M20.649029,121.899620 
	C21.877352,122.351852 22.732178,122.883263 23.293503,123.707336 
	C15.746112,124.000000 8.492223,124.000000 1.000000,124.000000 
	C1.000000,117.981667 1.000000,111.960205 1.000002,105.469376 
	C2.023369,105.996040 3.220575,106.867180 4.040982,108.009048 
	C8.334062,113.984268 12.673309,119.863991 20.649029,121.899620 
z"/>
<path fill="#000000" opacity="1.000000" stroke="none" 
	d="
M379.000000,19.530624 
	C378.621033,20.095854 377.940582,20.338163 377.905884,20.266785 
	C373.854858,11.926472 367.166077,6.214923 359.693848,1.289054 
	C366.259247,1.000000 372.518463,1.000000 379.000000,1.000000 
	C379.000000,7.018606 379.000000,13.039927 379.000000,19.530624 
z"/>
<path fill="#000000" opacity="1.000000" stroke="none" 
	d="
M19.530624,1.000000 
	C20.095026,1.380397 20.333635,2.065518 20.264721,2.097990 
	C11.845140,6.065217 6.313457,12.929726 1.295382,20.307110 
	C1.000000,13.740766 1.000000,7.481532 1.000000,1.000000 
	C7.018606,1.000000 13.039927,1.000000 19.530624,1.000000 
z"/>
<path fill="#FDFDFE" opacity="1.000000" stroke="none" 
	d="
M379.000000,103.531342 
	C377.556824,105.950783 376.113647,107.901581 374.314362,109.659073 
	C373.977936,108.969627 373.997620,108.473480 374.021301,107.772522 
	C374.025299,107.567711 374.010132,107.158279 374.229919,107.006653 
	C374.639343,106.560226 374.829041,106.265427 375.022400,105.768501 
	C375.026093,105.566376 375.011108,105.162331 375.265381,104.926247 
	C375.703827,103.800926 375.888000,102.911682 376.355835,101.763138 
	C377.095947,98.760666 377.934204,96.019455 377.948212,93.274040 
	C378.057404,71.871040 378.008087,50.467232 378.007721,29.063669 
	C378.007721,29.063669 378.503326,29.023819 378.751648,29.011909 
	C379.000000,53.687561 379.000000,78.375122 379.000000,103.531342 
z"/>
<path fill="#ECF2F9" opacity="1.000000" stroke="none" 
	d="
M352.922791,5.010755 
	C358.432953,5.198893 363.153381,6.978378 366.741211,12.232669 
	C368.075317,13.827680 369.079590,14.894744 370.083893,15.961802 
	C370.649750,16.458363 371.215607,16.954933 371.896240,18.083176 
	C372.990387,20.150425 373.969757,21.586002 374.949158,23.021580 
	C374.949158,23.021582 374.980835,23.000053 374.998596,23.418770 
	C375.339050,31.223520 375.661713,38.609550 375.643066,46.053417 
	C372.545380,48.788914 371.255829,47.561123 369.705688,44.571014 
	C363.614166,32.820957 355.121429,28.328979 344.549957,30.891603 
	C342.514557,29.946222 340.812256,29.148932 339.486389,28.213837 
	C342.700317,25.556475 348.070831,24.771027 345.968658,18.903107 
	C344.061646,13.579977 345.313080,12.072630 350.812469,13.169687 
	C354.009247,13.807393 357.137878,14.786775 360.297150,15.612418 
	C360.439545,15.206940 360.581940,14.801461 360.724304,14.395983 
	C358.230713,13.241098 355.840942,11.503684 353.224609,11.037314 
	C344.318390,9.449756 335.322388,8.371892 326.386108,6.940711 
	C324.860809,6.696434 323.460388,5.672724 322.470825,5.006437 
	C332.933807,5.006107 342.928314,5.008431 352.922791,5.010755 
z"/>
<path fill="#ECF2F9" opacity="1.000000" stroke="none" 
	d="
M38.996490,120.978661 
	C33.263374,120.329369 27.530258,119.680077 21.378265,119.039032 
	C20.959389,119.047295 20.486036,118.983940 20.239727,118.601898 
	C17.962769,116.495537 15.932117,114.771233 13.901465,113.046928 
	C9.557859,109.503304 5.983578,105.451057 5.023648,98.818237 
	C5.002946,87.655319 5.005980,77.328842 5.395902,67.092560 
	C6.124527,67.523483 6.730504,67.836876 6.769017,68.209000 
	C7.551811,75.772881 8.305702,83.340225 8.988420,90.913818 
	C9.488044,96.456253 11.335484,101.366440 15.084834,105.488281 
	C14.774704,101.790947 13.651956,98.349503 13.099542,94.818817 
	C12.554974,91.338272 13.862563,89.116478 17.915808,90.488564 
	C21.455973,91.686966 24.006981,90.633560 26.021336,87.560165 
	C26.693947,86.533928 27.880136,85.844299 28.962490,85.300644 
	C29.410427,86.363121 29.727430,87.125740 29.887421,88.247162 
	C24.904411,98.786392 27.317739,105.021942 40.524597,116.518112 
	C40.013775,118.009201 39.505135,119.493927 38.996490,120.978661 
z"/>
<path fill="#FFFFFF" opacity="1.000000" stroke="none" 
	d="
M352.668640,4.681560 
	C342.928314,5.008431 332.933807,5.006107 322.001831,5.002777 
	C228.708771,5.004209 136.353195,5.006647 43.531364,5.006444 
	C38.320732,4.989260 33.576336,4.974716 28.831942,4.960172 
	C30.569368,4.637976 32.306679,4.034528 34.044239,4.033791 
	C138.685165,3.989361 243.326126,3.993005 347.967072,4.009768 
	C349.449585,4.010006 350.932007,4.233218 352.668640,4.681560 
z"/>
<path fill="#ECF2F9" opacity="1.000000" stroke="none" 
	d="
M28.614735,4.971707 
	C33.576336,4.974716 38.320732,4.989260 43.440128,5.394594 
	C42.491848,6.190140 41.178276,6.911183 39.843830,6.952145 
	C20.247524,7.553674 7.462185,20.282917 6.917989,39.648285 
	C6.876778,41.114799 5.672630,42.548634 5.006424,43.530792 
	C4.991075,37.988941 4.978364,32.913967 4.965653,27.838989 
	C4.970908,27.423248 4.976162,27.007507 5.236919,26.158825 
	C5.654843,25.428301 5.817263,25.130720 5.979684,24.833138 
	C5.979684,24.833138 5.986495,24.398033 6.261315,24.000931 
	C6.679176,23.015850 6.822217,22.427868 6.965260,21.839888 
	C6.965260,21.839888 6.981876,21.403088 7.228751,21.077797 
	C7.738805,20.540926 7.908832,20.270702 7.985704,19.941835 
	C7.985704,19.941835 7.984496,20.003965 8.319301,19.944073 
	C9.090654,18.868980 9.527203,17.853783 9.963752,16.838583 
	C11.224625,15.406024 12.485497,13.973465 14.101091,12.160368 
	C14.714983,11.594668 14.887215,11.348630 14.972506,11.041716 
	C15.429007,10.761458 15.885508,10.481201 16.845478,9.997389 
	C17.564882,9.510156 17.780817,9.226478 17.996752,8.942800 
	C18.425737,8.635409 18.854721,8.328018 19.805218,7.918694 
	C20.541487,7.558550 20.756243,7.300340 20.970999,7.042129 
	C20.970999,7.042129 21.400225,6.986609 21.863096,6.901765 
	C22.541012,6.558638 22.756058,6.300354 22.971104,6.042071 
	C23.385822,6.014977 23.800543,5.987882 24.878998,5.975108 
	C26.350611,5.673325 27.158491,5.357220 27.966370,5.041115 
	C27.966370,5.041115 28.397528,4.983243 28.614735,4.971707 
z"/>
<path fill="#D0DDEB" opacity="1.000000" stroke="none" 
	d="
M375.984406,45.995583 
	C375.661713,38.609550 375.339050,31.223520 375.016968,23.413294 
	C375.987335,24.774364 376.957123,26.559629 377.967316,28.704281 
	C378.008087,50.467232 378.057404,71.871040 377.948212,93.274040 
	C377.934204,96.019455 377.095947,98.760666 376.084167,101.754242 
	C375.348083,102.001373 375.167389,101.998093 374.990051,101.566376 
	C375.330627,98.360077 375.943817,95.583763 375.959473,92.804077 
	C376.047424,77.201691 375.991333,61.598499 375.984406,45.995583 
z"/>
<path fill="#FFFFFF" opacity="1.000000" stroke="none" 
	d="
M4.669309,28.153934 
	C4.978364,32.913967 4.991075,37.988941 5.002769,43.999702 
	C5.004174,52.291119 5.006594,59.646744 5.009015,67.002373 
	C5.005980,77.328842 5.002946,87.655319 5.006696,98.440201 
	C4.674319,97.861954 4.041820,96.826019 4.039212,95.788506 
	C3.984446,73.996368 3.997639,52.204041 4.018745,30.411776 
	C4.019372,29.764030 4.249722,29.116507 4.669309,28.153934 
z"/>
<path fill="#E6EDF6" opacity="1.000000" stroke="none" 
	d="
M13.931798,113.404518 
	C15.932117,114.771233 17.962769,116.495537 20.002724,118.572762 
	C17.995396,117.204483 15.978763,115.483299 13.931798,113.404518 
z"/>
<path fill="#E6EDF6" opacity="1.000000" stroke="none" 
	d="
M370.052032,15.602938 
	C369.079590,14.894744 368.075317,13.827680 367.030640,12.421618 
	C368.000214,13.136436 369.010193,14.190250 370.052032,15.602938 
z"/>
<path fill="#E6EDF6" opacity="1.000000" stroke="none" 
	d="
M374.934021,22.679060 
	C373.969757,21.586002 372.990387,20.150425 372.010620,18.346729 
	C372.979828,19.431255 373.949371,20.883900 374.934021,22.679060 
z"/>
<path fill="#FFFFFF" opacity="1.000000" stroke="none" 
	d="
M9.687571,17.017101 
	C9.527203,17.853783 9.090654,18.868980 8.293085,19.927395 
	C8.425174,19.045612 8.918281,18.120615 9.687571,17.017101 
z"/>
<path fill="#FFFFFF" opacity="1.000000" stroke="none" 
	d="
M27.622478,5.025689 
	C27.158491,5.357220 26.350611,5.673325 25.190842,5.976926 
	C25.652164,5.646369 26.465378,5.328317 27.622478,5.025689 
z"/>
<path fill="#FFFFFF" opacity="1.000000" stroke="none" 
	d="
M6.725111,22.033443 
	C6.822217,22.427868 6.679176,23.015850 6.289391,23.785172 
	C6.190086,23.386677 6.337525,22.806837 6.725111,22.033443 
z"/>
<path fill="#FFFFFF" opacity="1.000000" stroke="none" 
	d="
M7.763935,20.047754 
	C7.908832,20.270702 7.738805,20.540926 7.259418,20.861401 
	C7.088372,20.624081 7.254690,20.351873 7.763935,20.047754 
z"/>
<path fill="#FFFFFF" opacity="1.000000" stroke="none" 
	d="
M14.749078,11.117116 
	C14.887215,11.348630 14.714983,11.594668 14.248533,11.876018 
	C14.081248,11.636817 14.242713,11.376921 14.749078,11.117116 
z"/>
<path fill="#FFFFFF" opacity="1.000000" stroke="none" 
	d="
M17.755877,9.056334 
	C17.780817,9.226478 17.564882,9.510156 17.091202,9.887864 
	C17.060638,9.711220 17.287819,9.440544 17.755877,9.056334 
z"/>
<path fill="#FFFFFF" opacity="1.000000" stroke="none" 
	d="
M20.730755,7.125329 
	C20.756243,7.300340 20.541487,7.558550 20.080532,7.898835 
	C20.053061,7.723449 20.271786,7.465990 20.730755,7.125329 
z"/>
<path fill="#FFFFFF" opacity="1.000000" stroke="none" 
	d="
M5.766119,24.973803 
	C5.817263,25.130720 5.654843,25.428301 5.266852,25.848370 
	C5.211707,25.685392 5.382131,25.399929 5.766119,24.973803 
z"/>
<path fill="#FFFFFF" opacity="1.000000" stroke="none" 
	d="
M22.730675,6.125212 
	C22.756058,6.300354 22.541012,6.558638 22.079475,6.898786 
	C22.052073,6.723218 22.271158,6.465786 22.730675,6.125212 
z"/>
<path fill="#E6EDF6" opacity="1.000000" stroke="none" 
	d="
M375.643066,46.053417 
	C375.991333,61.598499 376.047424,77.201691 375.959473,92.804077 
	C375.943817,95.583763 375.330627,98.360077 374.985779,101.960754 
	C374.989166,103.576492 375.000122,104.369415 375.011108,105.162331 
	C375.011108,105.162331 375.026093,105.566376 374.781097,105.894997 
	C374.360779,106.535172 374.185455,106.846733 374.010132,107.158287 
	C374.010132,107.158279 374.025299,107.567711 373.653809,107.771027 
	C369.857178,111.328560 366.432098,114.682785 363.006989,118.037003 
	C363.006989,118.037003 362.991577,117.998688 362.778442,118.101227 
	C362.376923,118.479858 362.188568,118.755966 362.000183,119.032059 
	C362.000183,119.032059 361.999023,118.994354 361.675964,118.986328 
	C360.899506,118.979652 360.446106,118.981010 359.992676,118.982376 
	C341.555969,122.990868 322.872864,120.830353 304.318756,120.889648 
	C221.525375,121.154266 138.730682,121.002625 55.529064,120.656830 
	C56.984390,119.669060 58.847118,119.025826 62.122726,117.894691 
	C59.038391,116.968567 57.313801,116.581734 55.690544,115.938972 
	C50.637569,113.938164 45.299759,112.386322 40.672543,109.646736 
	C34.405743,105.936417 31.070484,97.016273 33.402119,92.064423 
	C34.472904,93.073830 35.257854,93.980003 36.035980,95.268303 
	C37.876549,104.133446 43.954021,108.859062 51.603271,110.817230 
	C59.055916,112.725044 66.926468,113.877319 74.611427,113.866478 
	C161.810028,113.743500 249.008240,113.341316 336.206482,112.992142 
	C350.652924,112.934288 364.223511,102.802116 366.812714,88.602402 
	C368.416199,79.808655 367.768036,70.590965 367.975006,61.560013 
	C368.154633,53.721977 365.405457,46.765450 359.921082,41.342606 
	C357.703979,39.150349 353.988037,38.473915 350.646301,36.978897 
	C348.519989,34.913303 346.701538,32.976494 344.883087,31.039690 
	C355.121429,28.328979 363.614166,32.820957 369.705688,44.571014 
	C371.255829,47.561123 372.545380,48.788914 375.643066,46.053417 
z"/>
<path fill="#E9F0F7" opacity="1.000000" stroke="none" 
	d="
M33.116287,91.961182 
	C31.070484,97.016273 34.405743,105.936417 40.672543,109.646736 
	C45.299759,112.386322 50.637569,113.938164 55.690544,115.938972 
	C57.313801,116.581734 59.038391,116.968567 62.122726,117.894691 
	C58.847118,119.025826 56.984390,119.669060 55.060371,120.652008 
	C49.976341,120.993484 44.953602,120.995232 39.463676,120.987823 
	C39.505135,119.493927 40.013775,118.009201 40.524597,116.518112 
	C27.317739,105.021942 24.904411,98.786392 30.192238,88.382675 
	C31.474806,89.426659 32.295547,90.693916 33.116287,91.961182 
z"/>
<path fill="#CAD9E8" opacity="1.000000" stroke="none" 
	d="
M359.998474,119.255035 
	C360.446106,118.981010 360.899506,118.979652 361.692841,118.994751 
	C361.560974,119.334915 361.089172,119.658615 360.319946,120.027588 
	C360.016479,119.891144 360.010406,119.709427 359.998474,119.255035 
z"/>
<path fill="#CAD9E8" opacity="1.000000" stroke="none" 
	d="
M363.407501,118.024124 
	C366.432098,114.682785 369.857178,111.328560 373.649780,107.975845 
	C373.997620,108.473480 373.977936,108.969627 373.996460,109.836403 
	C371.630432,112.740532 369.226166,115.274033 366.516205,117.920006 
	C365.409668,118.025398 364.608856,118.018318 363.407501,118.024124 
z"/>
<path fill="#CAD9E8" opacity="1.000000" stroke="none" 
	d="
M362.228394,118.922318 
	C362.188568,118.755966 362.376923,118.479858 362.799072,118.100418 
	C362.840759,118.268913 362.648682,118.540741 362.228394,118.922318 
z"/>
<path fill="#CAD9E8" opacity="1.000000" stroke="none" 
	d="
M375.265381,104.926247 
	C375.000122,104.369415 374.989166,103.576492 374.982483,102.389191 
	C375.167389,101.998093 375.348083,102.001373 375.800476,102.013550 
	C375.888000,102.911682 375.703827,103.800926 375.265381,104.926247 
z"/>
<path fill="#D0DDEB" opacity="1.000000" stroke="none" 
	d="
M374.229919,107.006660 
	C374.185455,106.846733 374.360779,106.535172 374.777405,106.097122 
	C374.829041,106.265427 374.639343,106.560226 374.229919,107.006660 
z"/>
<path fill="#FF0000" opacity="1.000000" stroke="none" 
	d="
M33.402119,92.064423 
	C32.295547,90.693916 31.474806,89.426659 30.349251,88.023880 
	C29.727430,87.125740 29.410427,86.363121 28.930914,84.939285 
	C28.194647,82.816124 27.620892,81.354179 27.025501,79.454987 
	C26.946846,76.678062 26.889826,74.338394 26.907063,71.535385 
	C26.987753,65.078400 27.390430,59.053646 26.922977,53.097179 
	C25.734447,37.952579 39.678207,26.769402 53.298473,26.822172 
	C142.536850,27.167919 231.777222,27.000418 321.016937,26.991802 
	C323.010864,26.991610 325.004761,26.888060 327.441772,26.907848 
	C330.574188,27.024284 333.263580,27.065596 336.066467,27.393444 
	C337.156677,27.903864 338.133331,28.127747 339.109985,28.351637 
	C340.812256,29.148932 342.514557,29.946222 344.549957,30.891600 
	C346.701538,32.976494 348.519989,34.913303 350.670105,37.327515 
	C351.723572,39.202072 352.445404,40.599224 353.212891,42.374336 
	C353.894531,45.167706 354.530548,47.583115 355.091431,50.461899 
	C355.011597,59.089264 355.427856,67.284088 354.832977,75.404839 
	C354.513275,79.768517 353.137634,84.373306 351.050812,88.226006 
	C345.932220,97.675858 336.687286,99.942528 326.895966,99.951797 
	C236.924667,100.036949 146.953232,99.999779 56.981838,100.007088 
	C54.986572,100.007248 52.991318,100.111748 50.637413,99.989655 
	C47.518124,99.263718 44.757484,98.715691 41.677032,98.021439 
	C39.585751,96.878868 37.814281,95.882523 36.042809,94.886177 
	C35.257854,93.980003 34.472904,93.073830 33.402119,92.064423 
M228.972580,51.454414 
	C228.972580,53.163925 228.972580,54.873432 228.972580,56.810596 
	C222.776154,54.092991 219.211136,54.898392 217.353546,59.011730 
	C215.050095,64.112373 216.495438,72.335403 220.509262,73.218430 
	C224.721283,74.145058 229.295395,73.425735 233.641830,73.425735 
	C233.641830,64.977440 233.641830,56.704243 233.641830,48.431042 
	C233.257294,48.077782 232.872757,47.724522 232.488205,47.371262 
	C231.317307,48.439793 230.146393,49.508320 228.972580,51.454414 
M211.866287,57.671825 
	C206.867371,53.821869 201.257904,54.215229 198.500458,58.609108 
	C195.645782,63.157936 196.951218,70.521515 201.034821,72.904648 
	C205.485657,75.502090 210.610199,73.925804 213.085083,68.636482 
	C211.378555,68.873520 209.909973,68.753136 208.751648,69.295433 
	C204.123688,71.462112 203.142593,70.923050 202.391174,64.971924 
	C206.184464,64.971924 209.925400,64.971924 214.380539,64.971924 
	C213.551834,62.342216 212.920624,60.339252 211.866287,57.671825 
M155.015457,53.854977 
	C154.708328,52.568851 154.452606,50.179668 154.086349,50.162605 
	C148.863022,49.919266 143.624741,49.996605 138.454773,49.996605 
	C138.454773,58.421165 138.454773,66.011688 138.454773,73.956093 
	C140.142822,73.879120 141.532623,73.815750 143.309479,73.734734 
	C143.309479,70.769775 143.309479,68.171387 143.309479,65.022301 
	C145.981140,65.022301 148.299652,65.291161 150.518570,64.936607 
	C152.270874,64.656616 153.900681,63.610027 155.584900,62.903893 
	C153.821365,62.271362 152.100372,61.343822 150.283417,61.081921 
	C148.074951,60.763588 145.785599,61.006298 143.502838,61.006298 
	C143.502838,58.343948 143.502838,56.419842 143.502838,53.971874 
	C147.201416,53.971874 150.654175,53.971874 155.015457,53.854977 
M165.705704,62.183537 
	C164.404999,62.439034 163.021347,62.493240 161.819443,62.988518 
	C158.479523,64.364838 157.514008,67.063057 158.574448,70.325157 
	C159.728195,73.874306 162.616013,74.558220 165.836578,73.711205 
	C167.206421,73.350937 168.377731,72.235809 169.639267,71.463737 
	C169.548279,71.796272 169.457306,72.128807 169.366333,72.461342 
	C171.752594,72.911118 174.138840,73.360893 175.742905,73.663239 
	C175.095932,69.104836 174.324509,65.785706 174.230133,62.447430 
	C174.121887,58.618080 172.885773,55.806599 168.941422,55.166840 
	C164.829056,54.499840 161.041534,55.089855 159.664612,60.306496 
	C161.654297,60.188766 163.359314,59.235577 165.178604,58.897785 
	C166.333206,58.683411 167.657745,59.384380 168.906082,59.674858 
	C168.115524,60.507267 167.324966,61.339680 165.705704,62.183537 
M188.247025,63.469196 
	C188.247025,66.887772 188.247025,70.306351 188.247025,73.785202 
	C190.169601,73.785202 191.424911,73.785202 192.910889,73.785202 
	C192.910889,65.188675 192.910889,56.828178 192.910889,48.322311 
	C191.335281,48.322311 189.984711,48.322311 188.247238,48.322311 
	C188.247238,53.265018 188.247238,57.872952 188.247025,63.469196 
M178.944550,56.836006 
	C178.944550,62.424141 178.944550,68.012276 178.944550,73.981865 
	C180.786240,73.870598 182.142914,73.788635 183.611893,73.699890 
	C183.611893,67.394997 183.611893,61.495659 183.611893,54.850765 
	C181.885712,55.252934 180.463852,55.584202 178.944550,56.836006 
z"/>
<path fill="#EEF4FA" opacity="1.000000" stroke="none" 
	d="
M339.486389,28.213829 
	C338.133331,28.127747 337.156677,27.903864 336.207397,27.068272 
	C337.294495,23.837940 340.946686,21.534958 336.901367,18.372396 
	C331.556976,14.194260 325.833954,11.014930 318.853912,11.013435 
	C227.954605,10.993979 137.054626,10.825572 46.156647,11.171364 
	C30.853857,11.229578 17.137177,18.911501 13.206150,35.641907 
	C11.227690,44.062210 10.938818,53.075241 11.260257,61.769432 
	C11.464879,67.303955 13.469172,73.103462 15.967338,78.138771 
	C19.179420,84.613037 21.316782,84.567276 27.047134,79.892235 
	C27.620892,81.354179 28.194647,82.816124 28.799980,84.639435 
	C27.880136,85.844299 26.693947,86.533928 26.021336,87.560165 
	C24.006981,90.633560 21.455973,91.686966 17.915808,90.488564 
	C13.862563,89.116478 12.554974,91.338272 13.099542,94.818817 
	C13.651956,98.349503 14.774704,101.790947 15.084834,105.488281 
	C11.335484,101.366440 9.488044,96.456253 8.988420,90.913818 
	C8.305702,83.340225 7.551811,75.772881 6.769017,68.209000 
	C6.730504,67.836876 6.124527,67.523483 5.395902,67.092560 
	C5.006594,59.646744 5.004174,52.291119 5.005408,44.466576 
	C5.672630,42.548634 6.876778,41.114799 6.917989,39.648285 
	C7.462185,20.282917 20.247524,7.553674 39.843830,6.952145 
	C41.178276,6.911183 42.491848,6.190140 43.906364,5.397234 
	C136.353195,5.006647 228.708771,5.004209 321.533325,5.005432 
	C323.460388,5.672724 324.860809,6.696434 326.386108,6.940711 
	C335.322388,8.371892 344.318390,9.449756 353.224609,11.037314 
	C355.840942,11.503684 358.230713,13.241098 360.724304,14.395983 
	C360.581940,14.801461 360.439545,15.206940 360.297150,15.612418 
	C357.137878,14.786775 354.009247,13.807393 350.812469,13.169687 
	C345.313080,12.072630 344.061646,13.579977 345.968658,18.903107 
	C348.070831,24.771027 342.700317,25.556475 339.486389,28.213829 
z"/>
<path fill="#E1EAF4" opacity="1.000000" stroke="none" 
	d="
M353.167236,41.996368 
	C352.445404,40.599224 351.723572,39.202072 350.977966,37.456299 
	C353.988037,38.473915 357.703979,39.150349 359.921082,41.342606 
	C365.405457,46.765450 368.154633,53.721977 367.975006,61.560013 
	C367.768036,70.590965 368.416199,79.808655 366.812714,88.602402 
	C364.223511,102.802116 350.652924,112.934288 336.206482,112.992142 
	C249.008240,113.341316 161.810028,113.743500 74.611427,113.866478 
	C66.926468,113.877319 59.055916,112.725044 51.603271,110.817230 
	C43.954021,108.859062 37.876549,104.133446 36.035980,95.268303 
	C37.814281,95.882523 39.585751,96.878868 41.684174,98.379196 
	C43.252316,100.544395 44.188789,102.621994 45.788792,103.792923 
	C51.886703,108.255554 59.019058,109.932365 66.418900,109.953079 
	C103.058830,110.055641 139.699203,109.999985 176.339417,109.999985 
	C228.135361,109.999992 279.932281,110.171539 331.726562,109.880325 
	C344.830658,109.806648 356.857574,105.576653 361.784149,92.022003 
	C367.152557,77.251732 367.334320,62.045845 360.079224,47.598522 
	C358.866302,45.183231 355.525055,43.836727 353.167236,41.996368 
z"/>
<path fill="#F5F8FB" opacity="1.000000" stroke="none" 
	d="
M326.998688,26.832722 
	C325.004761,26.888060 323.010864,26.991610 321.016937,26.991802 
	C231.777222,27.000418 142.536850,27.167919 53.298473,26.822172 
	C39.678207,26.769402 25.734447,37.952579 26.922977,53.097179 
	C27.390430,59.053646 26.987753,65.078400 26.561489,71.584900 
	C21.369074,74.769791 18.657366,73.234016 18.097515,66.843163 
	C17.432259,59.249081 17.116211,51.606812 17.047031,43.981808 
	C16.906412,28.482731 28.586956,17.001925 44.214996,17.001406 
	C132.036285,16.998489 219.857590,16.983891 307.678833,17.043806 
	C312.468628,17.047073 317.283569,17.481030 322.041199,18.078062 
	C328.244965,18.856569 329.508270,21.294558 326.998688,26.832722 
z"/>
<path fill="#F1F6FB" opacity="1.000000" stroke="none" 
	d="
M327.441772,26.907848 
	C329.508270,21.294558 328.244965,18.856569 322.041199,18.078062 
	C317.283569,17.481030 312.468628,17.047073 307.678833,17.043806 
	C219.857590,16.983891 132.036285,16.998489 44.214996,17.001406 
	C28.586956,17.001925 16.906412,28.482731 17.047031,43.981808 
	C17.116211,51.606812 17.432259,59.249081 18.097515,66.843163 
	C18.657366,73.234016 21.369074,74.769791 26.487230,72.048233 
	C26.889826,74.338394 26.946846,76.678062 27.025501,79.454987 
	C21.316782,84.567276 19.179420,84.613037 15.967338,78.138771 
	C13.469172,73.103462 11.464879,67.303955 11.260257,61.769432 
	C10.938818,53.075241 11.227690,44.062210 13.206150,35.641907 
	C17.137177,18.911501 30.853857,11.229578 46.156647,11.171364 
	C137.054626,10.825572 227.954605,10.993979 318.853912,11.013435 
	C325.833954,11.014930 331.556976,14.194260 336.901367,18.372396 
	C340.946686,21.534958 337.294495,23.837940 336.093842,26.781734 
	C333.263580,27.065596 330.574188,27.024284 327.441772,26.907848 
z"/>
<path fill="#D4E0ED" opacity="1.000000" stroke="none" 
	d="
M50.996056,100.167572 
	C52.991318,100.111748 54.986572,100.007248 56.981838,100.007088 
	C146.953232,99.999779 236.924667,100.036949 326.895966,99.951797 
	C336.687286,99.942528 345.932220,97.675858 351.050812,88.226006 
	C353.137634,84.373306 354.513275,79.768517 354.832977,75.404839 
	C355.427856,67.284088 355.011597,59.089264 355.430054,50.531826 
	C357.224854,53.240406 359.553619,56.269760 359.798157,59.458935 
	C360.388092,67.152596 360.389801,74.944595 359.917786,82.653404 
	C359.279053,93.084717 354.031891,100.621628 343.701538,103.493416 
	C338.502289,104.938774 332.975739,105.887161 327.595062,105.897079 
	C247.028885,106.045670 166.462311,106.029892 85.895927,105.955643 
	C77.448479,105.947861 68.970924,105.642990 60.569263,104.833321 
	C57.119576,104.500885 52.778343,104.558273 50.996056,100.167572 
z"/>
<path fill="#DBE6F1" opacity="1.000000" stroke="none" 
	d="
M50.637413,99.989655 
	C52.778343,104.558273 57.119576,104.500885 60.569263,104.833321 
	C68.970924,105.642990 77.448479,105.947861 85.895927,105.955643 
	C166.462311,106.029892 247.028885,106.045670 327.595062,105.897079 
	C332.975739,105.887161 338.502289,104.938774 343.701538,103.493416 
	C354.031891,100.621628 359.279053,93.084717 359.917786,82.653404 
	C360.389801,74.944595 360.388092,67.152596 359.798157,59.458935 
	C359.553619,56.269760 357.224854,53.240406 355.505249,50.068451 
	C354.530548,47.583115 353.894531,45.167706 353.212891,42.374332 
	C355.525055,43.836727 358.866302,45.183231 360.079224,47.598522 
	C367.334320,62.045845 367.152557,77.251732 361.784149,92.022003 
	C356.857574,105.576653 344.830658,109.806648 331.726562,109.880325 
	C279.932281,110.171539 228.135361,109.999992 176.339417,109.999985 
	C139.699203,109.999985 103.058830,110.055641 66.418900,109.953079 
	C59.019058,109.932365 51.886703,108.255554 45.788792,103.792923 
	C44.188789,102.621994 43.252316,100.544395 42.003983,98.525421 
	C44.757484,98.715691 47.518124,99.263718 50.637413,99.989655 
z"/>
<path fill="#0F0000" opacity="1.000000" stroke="none" 
	d="
M228.974030,51.015633 
	C230.146393,49.508320 231.317307,48.439793 232.488205,47.371262 
	C232.872757,47.724522 233.257294,48.077782 233.641830,48.431042 
	C233.641830,56.704243 233.641830,64.977440 233.641830,73.425735 
	C229.295395,73.425735 224.721283,74.145058 220.509262,73.218430 
	C216.495438,72.335403 215.050095,64.112373 217.353546,59.011730 
	C219.211136,54.898392 222.776154,54.092991 228.972580,56.810596 
	C228.972580,54.873432 228.972580,53.163925 228.974030,51.015633 
M228.285675,68.358826 
	C228.440964,66.105202 229.080750,63.734505 228.574814,61.640663 
	C228.257523,60.327538 226.322723,58.813820 224.913162,58.575382 
	C224.052078,58.429733 221.927490,60.520992 221.914215,61.626141 
	C221.881027,64.388161 222.728638,67.160774 223.222809,69.929138 
	C224.792633,69.634598 226.362457,69.340065 228.285675,68.358826 
z"/>
<path fill="#110000" opacity="1.000000" stroke="none" 
	d="
M212.077850,58.004059 
	C212.920624,60.339252 213.551834,62.342216 214.380539,64.971924 
	C209.925400,64.971924 206.184464,64.971924 202.391174,64.971924 
	C203.142593,70.923050 204.123688,71.462112 208.751648,69.295433 
	C209.909973,68.753136 211.378555,68.873520 213.085083,68.636482 
	C210.610199,73.925804 205.485657,75.502090 201.034821,72.904648 
	C196.951218,70.521515 195.645782,63.157936 198.500458,58.609108 
	C201.257904,54.215229 206.867371,53.821869 212.077850,58.004059 
z"/>
<path fill="#0C0000" opacity="1.000000" stroke="none" 
	d="
M154.561188,53.913425 
	C150.654175,53.971874 147.201416,53.971874 143.502838,53.971874 
	C143.502838,56.419842 143.502838,58.343948 143.502838,61.006298 
	C145.785599,61.006298 148.074951,60.763588 150.283417,61.081921 
	C152.100372,61.343822 153.821365,62.271362 155.584900,62.903893 
	C153.900681,63.610027 152.270874,64.656616 150.518570,64.936607 
	C148.299652,65.291161 145.981140,65.022301 143.309479,65.022301 
	C143.309479,68.171387 143.309479,70.769775 143.309479,73.734734 
	C141.532623,73.815750 140.142822,73.879120 138.454773,73.956093 
	C138.454773,66.011688 138.454773,58.421165 138.454773,49.996605 
	C143.624741,49.996605 148.863022,49.919266 154.086349,50.162605 
	C154.452606,50.179668 154.708328,52.568851 154.561188,53.913425 
z"/>
<path fill="#110000" opacity="1.000000" stroke="none" 
	d="
M166.120056,62.177811 
	C167.324966,61.339680 168.115524,60.507267 168.906082,59.674858 
	C167.657745,59.384380 166.333206,58.683411 165.178604,58.897785 
	C163.359314,59.235577 161.654297,60.188766 159.664612,60.306496 
	C161.041534,55.089855 164.829056,54.499840 168.941422,55.166840 
	C172.885773,55.806599 174.121887,58.618080 174.230133,62.447430 
	C174.324509,65.785706 175.095932,69.104836 175.742905,73.663239 
	C174.138840,73.360893 171.752594,72.911118 169.366333,72.461342 
	C169.457306,72.128807 169.548279,71.796272 169.639267,71.463737 
	C168.377731,72.235809 167.206421,73.350937 165.836578,73.711205 
	C162.616013,74.558220 159.728195,73.874306 158.574448,70.325157 
	C157.514008,67.063057 158.479523,64.364838 161.819443,62.988518 
	C163.021347,62.493240 164.404999,62.439034 166.120056,62.177811 
M163.267868,68.435486 
	C164.590744,68.943550 166.401733,70.233566 167.125458,69.781799 
	C168.297165,69.050377 168.754852,67.175125 169.514038,65.782845 
	C169.027039,65.284607 168.540024,64.786362 168.053009,64.288124 
	C166.443130,65.399803 164.833252,66.511482 163.267868,68.435486 
z"/>
<path fill="#150000" opacity="1.000000" stroke="none" 
	d="
M188.247131,62.975037 
	C188.247238,57.872952 188.247238,53.265018 188.247238,48.322311 
	C189.984711,48.322311 191.335281,48.322311 192.910889,48.322311 
	C192.910889,56.828178 192.910889,65.188675 192.910889,73.785202 
	C191.424911,73.785202 190.169601,73.785202 188.247025,73.785202 
	C188.247025,70.306351 188.247025,66.887772 188.247131,62.975037 
z"/>
<path fill="#110000" opacity="1.000000" stroke="none" 
	d="
M178.993256,56.375740 
	C180.463852,55.584202 181.885712,55.252934 183.611893,54.850765 
	C183.611893,61.495659 183.611893,67.394997 183.611893,73.699890 
	C182.142914,73.788635 180.786240,73.870598 178.944550,73.981865 
	C178.944550,68.012276 178.944550,62.424141 178.993256,56.375740 
z"/>
<path fill="#EE0000" opacity="1.000000" stroke="none" 
	d="
M228.108978,68.702179 
	C226.362457,69.340065 224.792633,69.634598 223.222809,69.929138 
	C222.728638,67.160774 221.881027,64.388161 221.914215,61.626141 
	C221.927490,60.520992 224.052078,58.429733 224.913162,58.575382 
	C226.322723,58.813820 228.257523,60.327538 228.574814,61.640663 
	C229.080750,63.734505 228.440964,66.105202 228.108978,68.702179 
z"/>
<path fill="#E90000" opacity="1.000000" stroke="none" 
	d="
M163.245621,68.029327 
	C164.833252,66.511482 166.443130,65.399803 168.053009,64.288124 
	C168.540024,64.786362 169.027039,65.284607 169.514038,65.782845 
	C168.754852,67.175125 168.297165,69.050377 167.125458,69.781799 
	C166.401733,70.233566 164.590744,68.943550 163.245621,68.029327 
z"/>
</svg>