<svg width="378" height="123" viewBox="0 0 378 123" fill="none" xmlns="http://www.w3.org/2000/svg">
<g filter="url(#filter0_ddii_275_356)">
<rect x="4" y="4" width="374" height="119" rx="32" fill="#EDF3FA"/>
</g>
<g filter="url(#filter1_dd_275_356)">
<rect x="26" y="26" width="327.929" height="72.6111" rx="24" fill="#FCCE59" shape-rendering="crispEdges"/>
</g>
<path d="M107.196 72V48.2H116.988C119.096 48.2 120.898 48.54 122.394 49.22C123.913 49.9 125.08 50.8747 125.896 52.144C126.712 53.4133 127.12 54.9207 127.12 56.666C127.12 58.4113 126.712 59.9187 125.896 61.188C125.08 62.4573 123.913 63.432 122.394 64.112C120.898 64.792 119.096 65.132 116.988 65.132H109.644L111.616 63.058V72H107.196ZM111.616 63.534L109.644 61.392H116.784C118.733 61.392 120.195 60.984 121.17 60.168C122.167 59.3293 122.666 58.162 122.666 56.666C122.666 55.1473 122.167 53.98 121.17 53.164C120.195 52.348 118.733 51.94 116.784 51.94H109.644L111.616 49.764V63.534ZM130.96 72V53.844H135.006V58.842L134.53 57.38C135.074 56.156 135.924 55.2267 137.08 54.592C138.259 53.9573 139.721 53.64 141.466 53.64V57.686C141.285 57.6407 141.115 57.618 140.956 57.618C140.797 57.5953 140.639 57.584 140.48 57.584C138.871 57.584 137.59 58.06 136.638 59.012C135.686 59.9413 135.21 61.3353 135.21 63.194V72H130.96ZM153.065 72.238C151.207 72.238 149.552 71.8413 148.101 71.048C146.651 70.232 145.506 69.1213 144.667 67.716C143.829 66.3107 143.409 64.7127 143.409 62.922C143.409 61.1087 143.829 59.5107 144.667 58.128C145.506 56.7227 146.651 55.6233 148.101 54.83C149.552 54.0367 151.207 53.64 153.065 53.64C154.947 53.64 156.613 54.0367 158.063 54.83C159.537 55.6233 160.681 56.7113 161.497 58.094C162.336 59.4767 162.755 61.086 162.755 62.922C162.755 64.7127 162.336 66.3107 161.497 67.716C160.681 69.1213 159.537 70.232 158.063 71.048C156.613 71.8413 154.947 72.238 153.065 72.238ZM153.065 68.6C154.108 68.6 155.037 68.3733 155.853 67.92C156.669 67.4667 157.304 66.8093 157.757 65.948C158.233 65.0867 158.471 64.078 158.471 62.922C158.471 61.7433 158.233 60.7347 157.757 59.896C157.304 59.0347 156.669 58.3773 155.853 57.924C155.037 57.4707 154.119 57.244 153.099 57.244C152.057 57.244 151.127 57.4707 150.311 57.924C149.518 58.3773 148.883 59.0347 148.407 59.896C147.931 60.7347 147.693 61.7433 147.693 62.922C147.693 64.078 147.931 65.0867 148.407 65.948C148.883 66.8093 149.518 67.4667 150.311 67.92C151.127 68.3733 152.045 68.6 153.065 68.6ZM175.149 72.238C173.245 72.238 171.545 71.8413 170.049 71.048C168.576 70.232 167.42 69.1213 166.581 67.716C165.743 66.3107 165.323 64.7127 165.323 62.922C165.323 61.1087 165.743 59.5107 166.581 58.128C167.42 56.7227 168.576 55.6233 170.049 54.83C171.545 54.0367 173.245 53.64 175.149 53.64C176.917 53.64 178.47 54.0027 179.807 54.728C181.167 55.4307 182.199 56.4733 182.901 57.856L179.637 59.76C179.093 58.8987 178.425 58.264 177.631 57.856C176.861 57.448 176.022 57.244 175.115 57.244C174.073 57.244 173.132 57.4707 172.293 57.924C171.455 58.3773 170.797 59.0347 170.321 59.896C169.845 60.7347 169.607 61.7433 169.607 62.922C169.607 64.1007 169.845 65.1207 170.321 65.982C170.797 66.8207 171.455 67.4667 172.293 67.92C173.132 68.3733 174.073 68.6 175.115 68.6C176.022 68.6 176.861 68.396 177.631 67.988C178.425 67.58 179.093 66.9453 179.637 66.084L182.901 67.988C182.199 69.348 181.167 70.402 179.807 71.15C178.47 71.8753 176.917 72.238 175.149 72.238ZM194.843 72.238C192.826 72.238 191.058 71.8413 189.539 71.048C188.043 70.232 186.876 69.1213 186.037 67.716C185.221 66.3107 184.813 64.7127 184.813 62.922C184.813 61.1087 185.21 59.5107 186.003 58.128C186.819 56.7227 187.93 55.6233 189.335 54.83C190.763 54.0367 192.384 53.64 194.197 53.64C195.965 53.64 197.541 54.0253 198.923 54.796C200.306 55.5667 201.394 56.6547 202.187 58.06C202.981 59.4653 203.377 61.12 203.377 63.024C203.377 63.2053 203.366 63.4093 203.343 63.636C203.343 63.8627 203.332 64.078 203.309 64.282H188.179V61.46H201.065L199.399 62.344C199.422 61.3013 199.207 60.3833 198.753 59.59C198.3 58.7967 197.677 58.1733 196.883 57.72C196.113 57.2667 195.217 57.04 194.197 57.04C193.155 57.04 192.237 57.2667 191.443 57.72C190.673 58.1733 190.061 58.808 189.607 59.624C189.177 60.4173 188.961 61.358 188.961 62.446V63.126C188.961 64.214 189.211 65.1773 189.709 66.016C190.208 66.8547 190.911 67.5007 191.817 67.954C192.724 68.4073 193.767 68.634 194.945 68.634C195.965 68.634 196.883 68.4753 197.699 68.158C198.515 67.8407 199.241 67.342 199.875 66.662L202.153 69.28C201.337 70.232 200.306 70.9687 199.059 71.49C197.835 71.9887 196.43 72.238 194.843 72.238ZM213.07 72.238C211.551 72.238 210.089 72.0453 208.684 71.66C207.301 71.252 206.202 70.7647 205.386 70.198L207.018 66.968C207.834 67.4893 208.809 67.92 209.942 68.26C211.075 68.6 212.209 68.77 213.342 68.77C214.679 68.77 215.643 68.5887 216.232 68.226C216.844 67.8633 217.15 67.376 217.15 66.764C217.15 66.2653 216.946 65.8913 216.538 65.642C216.13 65.37 215.597 65.166 214.94 65.03C214.283 64.894 213.546 64.7693 212.73 64.656C211.937 64.5427 211.132 64.3953 210.316 64.214C209.523 64.01 208.797 63.7267 208.14 63.364C207.483 62.9787 206.95 62.4687 206.542 61.834C206.134 61.1993 205.93 60.3607 205.93 59.318C205.93 58.162 206.259 57.1647 206.916 56.326C207.573 55.4647 208.491 54.8073 209.67 54.354C210.871 53.878 212.288 53.64 213.92 53.64C215.144 53.64 216.379 53.776 217.626 54.048C218.873 54.32 219.904 54.7053 220.72 55.204L219.088 58.434C218.227 57.9127 217.354 57.5613 216.47 57.38C215.609 57.176 214.747 57.074 213.886 57.074C212.594 57.074 211.631 57.2667 210.996 57.652C210.384 58.0373 210.078 58.5247 210.078 59.114C210.078 59.658 210.282 60.066 210.69 60.338C211.098 60.61 211.631 60.8253 212.288 60.984C212.945 61.1427 213.671 61.2787 214.464 61.392C215.28 61.4827 216.085 61.63 216.878 61.834C217.671 62.038 218.397 62.3213 219.054 62.684C219.734 63.024 220.278 63.5113 220.686 64.146C221.094 64.7807 221.298 65.608 221.298 66.628C221.298 67.7613 220.958 68.7473 220.278 69.586C219.621 70.4247 218.68 71.082 217.456 71.558C216.232 72.0113 214.77 72.238 213.07 72.238ZM230.568 72.238C229.049 72.238 227.587 72.0453 226.182 71.66C224.799 71.252 223.7 70.7647 222.884 70.198L224.516 66.968C225.332 67.4893 226.307 67.92 227.44 68.26C228.573 68.6 229.707 68.77 230.84 68.77C232.177 68.77 233.141 68.5887 233.73 68.226C234.342 67.8633 234.648 67.376 234.648 66.764C234.648 66.2653 234.444 65.8913 234.036 65.642C233.628 65.37 233.095 65.166 232.438 65.03C231.781 64.894 231.044 64.7693 230.228 64.656C229.435 64.5427 228.63 64.3953 227.814 64.214C227.021 64.01 226.295 63.7267 225.638 63.364C224.981 62.9787 224.448 62.4687 224.04 61.834C223.632 61.1993 223.428 60.3607 223.428 59.318C223.428 58.162 223.757 57.1647 224.414 56.326C225.071 55.4647 225.989 54.8073 227.168 54.354C228.369 53.878 229.786 53.64 231.418 53.64C232.642 53.64 233.877 53.776 235.124 54.048C236.371 54.32 237.402 54.7053 238.218 55.204L236.586 58.434C235.725 57.9127 234.852 57.5613 233.968 57.38C233.107 57.176 232.245 57.074 231.384 57.074C230.092 57.074 229.129 57.2667 228.494 57.652C227.882 58.0373 227.576 58.5247 227.576 59.114C227.576 59.658 227.78 60.066 228.188 60.338C228.596 60.61 229.129 60.8253 229.786 60.984C230.443 61.1427 231.169 61.2787 231.962 61.392C232.778 61.4827 233.583 61.63 234.376 61.834C235.169 62.038 235.895 62.3213 236.552 62.684C237.232 63.024 237.776 63.5113 238.184 64.146C238.592 64.7807 238.796 65.608 238.796 66.628C238.796 67.7613 238.456 68.7473 237.776 69.586C237.119 70.4247 236.178 71.082 234.954 71.558C233.73 72.0113 232.268 72.238 230.568 72.238ZM242.456 72V53.844H246.706V72H242.456ZM244.598 50.852C243.805 50.852 243.147 50.6027 242.626 50.104C242.127 49.6053 241.878 49.0047 241.878 48.302C241.878 47.5767 242.127 46.976 242.626 46.5C243.147 46.0013 243.805 45.752 244.598 45.752C245.391 45.752 246.037 45.99 246.536 46.466C247.057 46.9193 247.318 47.4973 247.318 48.2C247.318 48.948 247.069 49.5827 246.57 50.104C246.071 50.6027 245.414 50.852 244.598 50.852ZM262.586 53.64C264.037 53.64 265.329 53.9233 266.462 54.49C267.618 55.0567 268.525 55.9293 269.182 57.108C269.839 58.264 270.168 59.76 270.168 61.596V72H265.918V62.14C265.918 60.5307 265.533 59.3293 264.762 58.536C264.014 57.7427 262.96 57.346 261.6 57.346C260.603 57.346 259.719 57.55 258.948 57.958C258.177 58.366 257.577 58.978 257.146 59.794C256.738 60.5873 256.534 61.596 256.534 62.82V72H252.284V53.844H256.33V58.74L255.616 57.244C256.251 56.088 257.169 55.204 258.37 54.592C259.594 53.9573 260.999 53.64 262.586 53.64ZM283.821 78.834C282.143 78.834 280.5 78.6073 278.891 78.154C277.304 77.7233 276.001 77.0887 274.981 76.25L276.885 73.054C277.678 73.7113 278.675 74.2327 279.877 74.618C281.101 75.026 282.336 75.23 283.583 75.23C285.577 75.23 287.039 74.7653 287.969 73.836C288.898 72.9293 289.363 71.558 289.363 69.722V66.492L289.703 62.378L289.567 58.264V53.844H293.613V69.246C293.613 72.5327 292.774 74.9467 291.097 76.488C289.419 78.052 286.994 78.834 283.821 78.834ZM283.277 71.184C281.554 71.184 279.99 70.8213 278.585 70.096C277.202 69.348 276.103 68.3167 275.287 67.002C274.493 65.6873 274.097 64.146 274.097 62.378C274.097 60.6327 274.493 59.1027 275.287 57.788C276.103 56.4733 277.202 55.4533 278.585 54.728C279.99 54.0027 281.554 53.64 283.277 53.64C284.818 53.64 286.201 53.946 287.425 54.558C288.649 55.17 289.623 56.122 290.349 57.414C291.097 58.706 291.471 60.3607 291.471 62.378C291.471 64.3953 291.097 66.0613 290.349 67.376C289.623 68.668 288.649 69.6313 287.425 70.266C286.201 70.878 284.818 71.184 283.277 71.184ZM283.923 67.58C284.988 67.58 285.94 67.3647 286.779 66.934C287.617 66.4807 288.263 65.8687 288.717 65.098C289.193 64.3047 289.431 63.398 289.431 62.378C289.431 61.358 289.193 60.4627 288.717 59.692C288.263 58.8987 287.617 58.298 286.779 57.89C285.94 57.4593 284.988 57.244 283.923 57.244C282.857 57.244 281.894 57.4593 281.033 57.89C280.194 58.298 279.537 58.8987 279.061 59.692C278.607 60.4627 278.381 61.358 278.381 62.378C278.381 63.398 278.607 64.3047 279.061 65.098C279.537 65.8687 280.194 66.4807 281.033 66.934C281.894 67.3647 282.857 67.58 283.923 67.58Z" fill="black"/>
<defs>
<filter id="filter0_ddii_275_356" x="0" y="0" width="378" height="123" filterUnits="userSpaceOnUse" color-interpolation-filters="sRGB">
<feFlood flood-opacity="0" result="BackgroundImageFix"/>
<feColorMatrix in="SourceAlpha" type="matrix" values="0 0 0 0 0 0 0 0 0 0 0 0 0 0 0 0 0 0 127 0" result="hardAlpha"/>
<feOffset dx="-2" dy="-2"/>
<feGaussianBlur stdDeviation="1"/>
<feComposite in2="hardAlpha" operator="out"/>
<feColorMatrix type="matrix" values="0 0 0 0 0.72 0 0 0 0 0.8 0 0 0 0 0.88 0 0 0 1 0"/>
<feBlend mode="normal" in2="BackgroundImageFix" result="effect1_dropShadow_275_356"/>
<feColorMatrix in="SourceAlpha" type="matrix" values="0 0 0 0 0 0 0 0 0 0 0 0 0 0 0 0 0 0 127 0" result="hardAlpha"/>
<feOffset dx="-1" dy="-1"/>
<feComposite in2="hardAlpha" operator="out"/>
<feColorMatrix type="matrix" values="0 0 0 0 1 0 0 0 0 1 0 0 0 0 1 0 0 0 1 0"/>
<feBlend mode="normal" in2="effect1_dropShadow_275_356" result="effect2_dropShadow_275_356"/>
<feBlend mode="normal" in="SourceGraphic" in2="effect2_dropShadow_275_356" result="shape"/>
<feColorMatrix in="SourceAlpha" type="matrix" values="0 0 0 0 0 0 0 0 0 0 0 0 0 0 0 0 0 0 127 0" result="hardAlpha"/>
<feOffset dx="-2" dy="-2"/>
<feGaussianBlur stdDeviation="1"/>
<feComposite in2="hardAlpha" operator="arithmetic" k2="-1" k3="1"/>
<feColorMatrix type="matrix" values="0 0 0 0 0.721569 0 0 0 0 0.8 0 0 0 0 0.878431 0 0 0 1 0"/>
<feBlend mode="normal" in2="shape" result="effect3_innerShadow_275_356"/>
<feColorMatrix in="SourceAlpha" type="matrix" values="0 0 0 0 0 0 0 0 0 0 0 0 0 0 0 0 0 0 127 0" result="hardAlpha"/>
<feOffset dx="-1" dy="-1"/>
<feComposite in2="hardAlpha" operator="arithmetic" k2="-1" k3="1"/>
<feColorMatrix type="matrix" values="0 0 0 0 1 0 0 0 0 1 0 0 0 0 1 0 0 0 1 0"/>
<feBlend mode="normal" in2="effect3_innerShadow_275_356" result="effect4_innerShadow_275_356"/>
</filter>
<filter id="filter1_dd_275_356" x="2" y="2" width="375.929" height="120.611" filterUnits="userSpaceOnUse" color-interpolation-filters="sRGB">
<feFlood flood-opacity="0" result="BackgroundImageFix"/>
<feColorMatrix in="SourceAlpha" type="matrix" values="0 0 0 0 0 0 0 0 0 0 0 0 0 0 0 0 0 0 127 0" result="hardAlpha"/>
<feOffset dx="-8" dy="-8"/>
<feGaussianBlur stdDeviation="8"/>
<feComposite in2="hardAlpha" operator="out"/>
<feColorMatrix type="matrix" values="0 0 0 0 1 0 0 0 0 1 0 0 0 0 1 0 0 0 1 0"/>
<feBlend mode="normal" in2="BackgroundImageFix" result="effect1_dropShadow_275_356"/>
<feColorMatrix in="SourceAlpha" type="matrix" values="0 0 0 0 0 0 0 0 0 0 0 0 0 0 0 0 0 0 127 0" result="hardAlpha"/>
<feOffset dx="8" dy="8"/>
<feGaussianBlur stdDeviation="8"/>
<feComposite in2="hardAlpha" operator="out"/>
<feColorMatrix type="matrix" values="0 0 0 0 0.79 0 0 0 0 0.85 0 0 0 0 0.91 0 0 0 1 0"/>
<feBlend mode="normal" in2="effect1_dropShadow_275_356" result="effect2_dropShadow_275_356"/>
<feBlend mode="normal" in="SourceGraphic" in2="effect2_dropShadow_275_356" result="shape"/>
</filter>
</defs>
</svg>
