<svg width="378" height="123" viewBox="0 0 378 123" fill="none" xmlns="http://www.w3.org/2000/svg">
<g filter="url(#filter0_ddii_275_356)">
<rect x="4" y="4" width="374" height="119" rx="32" fill="#EDF3FA"/>
</g>
<g filter="url(#filter1_dd_275_356)">
<rect x="26" y="26" width="327.929" height="72.6111" rx="24" fill="#92F490" shape-rendering="crispEdges"/>
</g>
<path d="M114.574 72.34C112.715 72.34 110.936 72.0793 109.236 71.558C107.536 71.014 106.187 70.3227 105.19 69.484L106.72 66.05C107.672 66.798 108.851 67.4213 110.256 67.92C111.661 68.4187 113.101 68.668 114.574 68.668C115.821 68.668 116.829 68.532 117.6 68.26C118.371 67.988 118.937 67.6253 119.3 67.172C119.663 66.696 119.844 66.1633 119.844 65.574C119.844 64.8487 119.583 64.2707 119.062 63.84C118.541 63.3867 117.861 63.0353 117.022 62.786C116.206 62.514 115.288 62.2647 114.268 62.038C113.271 61.8113 112.262 61.5507 111.242 61.256C110.245 60.9387 109.327 60.542 108.488 60.066C107.672 59.5673 107.003 58.91 106.482 58.094C105.961 57.278 105.7 56.2353 105.7 54.966C105.7 53.674 106.04 52.4953 106.72 51.43C107.423 50.342 108.477 49.4807 109.882 48.846C111.31 48.1887 113.112 47.86 115.288 47.86C116.716 47.86 118.133 48.0413 119.538 48.404C120.943 48.7667 122.167 49.288 123.21 49.968L121.816 53.402C120.751 52.7673 119.651 52.3027 118.518 52.008C117.385 51.6907 116.297 51.532 115.254 51.532C114.03 51.532 113.033 51.6793 112.262 51.974C111.514 52.2687 110.959 52.654 110.596 53.13C110.256 53.606 110.086 54.15 110.086 54.762C110.086 55.4873 110.335 56.0767 110.834 56.53C111.355 56.9607 112.024 57.3007 112.84 57.55C113.679 57.7993 114.608 58.0487 115.628 58.298C116.648 58.5247 117.657 58.7853 118.654 59.08C119.674 59.3747 120.592 59.76 121.408 60.236C122.247 60.712 122.915 61.358 123.414 62.174C123.935 62.99 124.196 64.0213 124.196 65.268C124.196 66.5373 123.845 67.716 123.142 68.804C122.462 69.8693 121.408 70.7307 119.98 71.388C118.552 72.0227 116.75 72.34 114.574 72.34ZM135.855 72.238C134.313 72.238 132.953 71.9547 131.775 71.388C130.596 70.7987 129.678 69.9147 129.021 68.736C128.363 67.5347 128.035 66.0273 128.035 64.214V53.844H132.285V63.636C132.285 65.268 132.647 66.492 133.373 67.308C134.121 68.1013 135.175 68.498 136.535 68.498C137.532 68.498 138.393 68.294 139.119 67.886C139.867 67.478 140.445 66.866 140.853 66.05C141.283 65.234 141.499 64.2253 141.499 63.024V53.844H145.749V72H141.703V67.104L142.417 68.6C141.805 69.7787 140.909 70.6853 139.731 71.32C138.552 71.932 137.26 72.238 135.855 72.238ZM159.643 72.238C157.739 72.238 156.039 71.8413 154.543 71.048C153.07 70.232 151.914 69.1213 151.075 67.716C150.237 66.3107 149.817 64.7127 149.817 62.922C149.817 61.1087 150.237 59.5107 151.075 58.128C151.914 56.7227 153.07 55.6233 154.543 54.83C156.039 54.0367 157.739 53.64 159.643 53.64C161.411 53.64 162.964 54.0027 164.301 54.728C165.661 55.4307 166.693 56.4733 167.395 57.856L164.131 59.76C163.587 58.8987 162.919 58.264 162.125 57.856C161.355 57.448 160.516 57.244 159.609 57.244C158.567 57.244 157.626 57.4707 156.787 57.924C155.949 58.3773 155.291 59.0347 154.815 59.896C154.339 60.7347 154.101 61.7433 154.101 62.922C154.101 64.1007 154.339 65.1207 154.815 65.982C155.291 66.8207 155.949 67.4667 156.787 67.92C157.626 68.3733 158.567 68.6 159.609 68.6C160.516 68.6 161.355 68.396 162.125 67.988C162.919 67.58 163.587 66.9453 164.131 66.084L167.395 67.988C166.693 69.348 165.661 70.402 164.301 71.15C162.964 71.8753 161.411 72.238 159.643 72.238ZM179.134 72.238C177.23 72.238 175.53 71.8413 174.034 71.048C172.56 70.232 171.404 69.1213 170.566 67.716C169.727 66.3107 169.308 64.7127 169.308 62.922C169.308 61.1087 169.727 59.5107 170.566 58.128C171.404 56.7227 172.56 55.6233 174.034 54.83C175.53 54.0367 177.23 53.64 179.134 53.64C180.902 53.64 182.454 54.0027 183.792 54.728C185.152 55.4307 186.183 56.4733 186.886 57.856L183.622 59.76C183.078 58.8987 182.409 58.264 181.616 57.856C180.845 57.448 180.006 57.244 179.1 57.244C178.057 57.244 177.116 57.4707 176.278 57.924C175.439 58.3773 174.782 59.0347 174.306 59.896C173.83 60.7347 173.592 61.7433 173.592 62.922C173.592 64.1007 173.83 65.1207 174.306 65.982C174.782 66.8207 175.439 67.4667 176.278 67.92C177.116 68.3733 178.057 68.6 179.1 68.6C180.006 68.6 180.845 68.396 181.616 67.988C182.409 67.58 183.078 66.9453 183.622 66.084L186.886 67.988C186.183 69.348 185.152 70.402 183.792 71.15C182.454 71.8753 180.902 72.238 179.134 72.238ZM198.828 72.238C196.811 72.238 195.043 71.8413 193.524 71.048C192.028 70.232 190.861 69.1213 190.022 67.716C189.206 66.3107 188.798 64.7127 188.798 62.922C188.798 61.1087 189.195 59.5107 189.988 58.128C190.804 56.7227 191.915 55.6233 193.32 54.83C194.748 54.0367 196.369 53.64 198.182 53.64C199.95 53.64 201.525 54.0253 202.908 54.796C204.291 55.5667 205.379 56.6547 206.172 58.06C206.965 59.4653 207.362 61.12 207.362 63.024C207.362 63.2053 207.351 63.4093 207.328 63.636C207.328 63.8627 207.317 64.078 207.294 64.282H192.164V61.46H205.05L203.384 62.344C203.407 61.3013 203.191 60.3833 202.738 59.59C202.285 58.7967 201.661 58.1733 200.868 57.72C200.097 57.2667 199.202 57.04 198.182 57.04C197.139 57.04 196.221 57.2667 195.428 57.72C194.657 58.1733 194.045 58.808 193.592 59.624C193.161 60.4173 192.946 61.358 192.946 62.446V63.126C192.946 64.214 193.195 65.1773 193.694 66.016C194.193 66.8547 194.895 67.5007 195.802 67.954C196.709 68.4073 197.751 68.634 198.93 68.634C199.95 68.634 200.868 68.4753 201.684 68.158C202.5 67.8407 203.225 67.342 203.86 66.662L206.138 69.28C205.322 70.232 204.291 70.9687 203.044 71.49C201.82 71.9887 200.415 72.238 198.828 72.238ZM219.978 72.238C217.961 72.238 216.193 71.8413 214.674 71.048C213.178 70.232 212.011 69.1213 211.172 67.716C210.356 66.3107 209.948 64.7127 209.948 62.922C209.948 61.1087 210.345 59.5107 211.138 58.128C211.954 56.7227 213.065 55.6233 214.47 54.83C215.898 54.0367 217.519 53.64 219.332 53.64C221.1 53.64 222.676 54.0253 224.058 54.796C225.441 55.5667 226.529 56.6547 227.322 58.06C228.116 59.4653 228.512 61.12 228.512 63.024C228.512 63.2053 228.501 63.4093 228.478 63.636C228.478 63.8627 228.467 64.078 228.444 64.282H213.314V61.46H226.2L224.534 62.344C224.557 61.3013 224.342 60.3833 223.888 59.59C223.435 58.7967 222.812 58.1733 222.018 57.72C221.248 57.2667 220.352 57.04 219.332 57.04C218.29 57.04 217.372 57.2667 216.578 57.72C215.808 58.1733 215.196 58.808 214.742 59.624C214.312 60.4173 214.096 61.358 214.096 62.446V63.126C214.096 64.214 214.346 65.1773 214.844 66.016C215.343 66.8547 216.046 67.5007 216.952 67.954C217.859 68.4073 218.902 68.634 220.08 68.634C221.1 68.634 222.018 68.4753 222.834 68.158C223.65 67.8407 224.376 67.342 225.01 66.662L227.288 69.28C226.472 70.232 225.441 70.9687 224.194 71.49C222.97 71.9887 221.565 72.238 219.978 72.238ZM240.279 72.238C238.533 72.238 236.958 71.8527 235.553 71.082C234.17 70.2887 233.082 69.2007 232.289 67.818C231.495 66.4353 231.099 64.8033 231.099 62.922C231.099 61.0407 231.495 59.4087 232.289 58.026C233.082 56.6433 234.17 55.5667 235.553 54.796C236.958 54.0253 238.533 53.64 240.279 53.64C241.797 53.64 243.157 53.98 244.359 54.66C245.56 55.3173 246.512 56.326 247.215 57.686C247.917 59.046 248.269 60.7913 248.269 62.922C248.269 65.03 247.929 66.7753 247.249 68.158C246.569 69.518 245.628 70.538 244.427 71.218C243.225 71.898 241.843 72.238 240.279 72.238ZM240.789 68.6C241.809 68.6 242.715 68.3733 243.509 67.92C244.325 67.4667 244.971 66.8093 245.447 65.948C245.945 65.0867 246.195 64.078 246.195 62.922C246.195 61.7433 245.945 60.7347 245.447 59.896C244.971 59.0347 244.325 58.3773 243.509 57.924C242.715 57.4707 241.809 57.244 240.789 57.244C239.769 57.244 238.851 57.4707 238.035 57.924C237.241 58.3773 236.595 59.0347 236.097 59.896C235.621 60.7347 235.383 61.7433 235.383 62.922C235.383 64.078 235.621 65.0867 236.097 65.948C236.595 66.8093 237.241 67.4667 238.035 67.92C238.851 68.3733 239.769 68.6 240.789 68.6ZM246.297 72V67.716L246.467 62.888L246.127 58.06V46.772H250.343V72H246.297ZM264.47 72.238C262.453 72.238 260.685 71.8413 259.166 71.048C257.67 70.232 256.503 69.1213 255.664 67.716C254.848 66.3107 254.44 64.7127 254.44 62.922C254.44 61.1087 254.837 59.5107 255.63 58.128C256.446 56.7227 257.557 55.6233 258.962 54.83C260.39 54.0367 262.011 53.64 263.824 53.64C265.592 53.64 267.168 54.0253 268.55 54.796C269.933 55.5667 271.021 56.6547 271.814 58.06C272.608 59.4653 273.004 61.12 273.004 63.024C273.004 63.2053 272.993 63.4093 272.97 63.636C272.97 63.8627 272.959 64.078 272.936 64.282H257.806V61.46H270.692L269.026 62.344C269.049 61.3013 268.834 60.3833 268.38 59.59C267.927 58.7967 267.304 58.1733 266.51 57.72C265.74 57.2667 264.844 57.04 263.824 57.04C262.782 57.04 261.864 57.2667 261.07 57.72C260.3 58.1733 259.688 58.808 259.234 59.624C258.804 60.4173 258.588 61.358 258.588 62.446V63.126C258.588 64.214 258.838 65.1773 259.336 66.016C259.835 66.8547 260.538 67.5007 261.444 67.954C262.351 68.4073 263.394 68.634 264.572 68.634C265.592 68.634 266.51 68.4753 267.326 68.158C268.142 67.8407 268.868 67.342 269.502 66.662L271.78 69.28C270.964 70.232 269.933 70.9687 268.686 71.49C267.462 71.9887 266.057 72.238 264.47 72.238ZM284.771 72.238C283.025 72.238 281.45 71.8527 280.045 71.082C278.662 70.2887 277.574 69.2007 276.781 67.818C275.987 66.4353 275.591 64.8033 275.591 62.922C275.591 61.0407 275.987 59.4087 276.781 58.026C277.574 56.6433 278.662 55.5667 280.045 54.796C281.45 54.0253 283.025 53.64 284.771 53.64C286.289 53.64 287.649 53.98 288.851 54.66C290.052 55.3173 291.004 56.326 291.707 57.686C292.409 59.046 292.761 60.7913 292.761 62.922C292.761 65.03 292.421 66.7753 291.741 68.158C291.061 69.518 290.12 70.538 288.919 71.218C287.717 71.898 286.335 72.238 284.771 72.238ZM285.281 68.6C286.301 68.6 287.207 68.3733 288.001 67.92C288.817 67.4667 289.463 66.8093 289.939 65.948C290.437 65.0867 290.687 64.078 290.687 62.922C290.687 61.7433 290.437 60.7347 289.939 59.896C289.463 59.0347 288.817 58.3773 288.001 57.924C287.207 57.4707 286.301 57.244 285.281 57.244C284.261 57.244 283.343 57.4707 282.527 57.924C281.733 58.3773 281.087 59.0347 280.589 59.896C280.113 60.7347 279.875 61.7433 279.875 62.922C279.875 64.078 280.113 65.0867 280.589 65.948C281.087 66.8093 281.733 67.4667 282.527 67.92C283.343 68.3733 284.261 68.6 285.281 68.6ZM290.789 72V67.716L290.959 62.888L290.619 58.06V46.772H294.835V72H290.789Z" fill="black"/>
<defs>
<filter id="filter0_ddii_275_356" x="0" y="0" width="378" height="123" filterUnits="userSpaceOnUse" color-interpolation-filters="sRGB">
<feFlood flood-opacity="0" result="BackgroundImageFix"/>
<feColorMatrix in="SourceAlpha" type="matrix" values="0 0 0 0 0 0 0 0 0 0 0 0 0 0 0 0 0 0 127 0" result="hardAlpha"/>
<feOffset dx="-2" dy="-2"/>
<feGaussianBlur stdDeviation="1"/>
<feComposite in2="hardAlpha" operator="out"/>
<feColorMatrix type="matrix" values="0 0 0 0 0.72 0 0 0 0 0.8 0 0 0 0 0.88 0 0 0 1 0"/>
<feBlend mode="normal" in2="BackgroundImageFix" result="effect1_dropShadow_275_356"/>
<feColorMatrix in="SourceAlpha" type="matrix" values="0 0 0 0 0 0 0 0 0 0 0 0 0 0 0 0 0 0 127 0" result="hardAlpha"/>
<feOffset dx="-1" dy="-1"/>
<feComposite in2="hardAlpha" operator="out"/>
<feColorMatrix type="matrix" values="0 0 0 0 1 0 0 0 0 1 0 0 0 0 1 0 0 0 1 0"/>
<feBlend mode="normal" in2="effect1_dropShadow_275_356" result="effect2_dropShadow_275_356"/>
<feBlend mode="normal" in="SourceGraphic" in2="effect2_dropShadow_275_356" result="shape"/>
<feColorMatrix in="SourceAlpha" type="matrix" values="0 0 0 0 0 0 0 0 0 0 0 0 0 0 0 0 0 0 127 0" result="hardAlpha"/>
<feOffset dx="-2" dy="-2"/>
<feGaussianBlur stdDeviation="1"/>
<feComposite in2="hardAlpha" operator="arithmetic" k2="-1" k3="1"/>
<feColorMatrix type="matrix" values="0 0 0 0 0.721569 0 0 0 0 0.8 0 0 0 0 0.878431 0 0 0 1 0"/>
<feBlend mode="normal" in2="shape" result="effect3_innerShadow_275_356"/>
<feColorMatrix in="SourceAlpha" type="matrix" values="0 0 0 0 0 0 0 0 0 0 0 0 0 0 0 0 0 0 127 0" result="hardAlpha"/>
<feOffset dx="-1" dy="-1"/>
<feComposite in2="hardAlpha" operator="arithmetic" k2="-1" k3="1"/>
<feColorMatrix type="matrix" values="0 0 0 0 1 0 0 0 0 1 0 0 0 0 1 0 0 0 1 0"/>
<feBlend mode="normal" in2="effect3_innerShadow_275_356" result="effect4_innerShadow_275_356"/>
</filter>
<filter id="filter1_dd_275_356" x="2" y="2" width="375.929" height="120.611" filterUnits="userSpaceOnUse" color-interpolation-filters="sRGB">
<feFlood flood-opacity="0" result="BackgroundImageFix"/>
<feColorMatrix in="SourceAlpha" type="matrix" values="0 0 0 0 0 0 0 0 0 0 0 0 0 0 0 0 0 0 127 0" result="hardAlpha"/>
<feOffset dx="-8" dy="-8"/>
<feGaussianBlur stdDeviation="8"/>
<feComposite in2="hardAlpha" operator="out"/>
<feColorMatrix type="matrix" values="0 0 0 0 1 0 0 0 0 1 0 0 0 0 1 0 0 0 1 0"/>
<feBlend mode="normal" in2="BackgroundImageFix" result="effect1_dropShadow_275_356"/>
<feColorMatrix in="SourceAlpha" type="matrix" values="0 0 0 0 0 0 0 0 0 0 0 0 0 0 0 0 0 0 127 0" result="hardAlpha"/>
<feOffset dx="8" dy="8"/>
<feGaussianBlur stdDeviation="8"/>
<feComposite in2="hardAlpha" operator="out"/>
<feColorMatrix type="matrix" values="0 0 0 0 0.79 0 0 0 0 0.85 0 0 0 0 0.91 0 0 0 1 0"/>
<feBlend mode="normal" in2="effect1_dropShadow_275_356" result="effect2_dropShadow_275_356"/>
<feBlend mode="normal" in="SourceGraphic" in2="effect2_dropShadow_275_356" result="shape"/>
</filter>
</defs>
</svg>
