<svg width="49" height="85" viewBox="0 0 49 85" fill="none" xmlns="http://www.w3.org/2000/svg">
<rect x="6.27582" y="11.2939" width="36.4018" height="67.488" rx="6" fill="#8EF598"/>
<path d="M2.63562 15.512L2.63562 74.564C2.63562 79.2231 5.89515 83 9.91598 83L39.0374 83C43.0583 83 46.3178 79.2231 46.3178 74.564L46.3178 15.512C46.3178 10.8529 43.0582 7.07599 39.0374 7.07599L9.91598 7.076C5.89514 7.076 2.63562 10.8529 2.63562 15.512Z" stroke="black" stroke-width="4" stroke-linecap="round" stroke-linejoin="round"/>
<path d="M27.8452 2.00003L20.5648 2.00003" stroke="black" stroke-width="4" stroke-linecap="round" stroke-linejoin="round"/>
<path d="M16.008 53V30.6H25.224C27.208 30.6 28.904 30.92 30.312 31.56C31.7413 32.2 32.84 33.1173 33.608 34.312C34.376 35.5067 34.76 36.9253 34.76 38.568C34.76 40.2107 34.376 41.6293 33.608 42.824C32.84 43.9973 31.7413 44.904 30.312 45.544C28.904 46.1627 27.208 46.472 25.224 46.472H18.312L20.168 44.584V53H16.008ZM30.664 53L25 44.872H29.448L35.144 53H30.664ZM20.168 45.032L18.312 43.048H25.032C26.8667 43.048 28.2427 42.6533 29.16 41.864C30.0987 41.0747 30.568 39.976 30.568 38.568C30.568 37.1387 30.0987 36.04 29.16 35.272C28.2427 34.504 26.8667 34.12 25.032 34.12H18.312L20.168 32.072V45.032Z" fill="black"/>
</svg>
