<svg width="48" height="85" viewBox="0 0 48 85" fill="none" xmlns="http://www.w3.org/2000/svg">
<rect x="7" y="49" width="35" height="30" rx="6" fill="#FCCE59"/>
<path d="M2.78445 15.5009L2.78445 74.5273C2.78445 79.1844 5.99533 82.9597 9.95615 82.9597L38.6429 82.9597C42.6037 82.9597 45.8146 79.1844 45.8146 74.5273L45.8146 15.5009C45.8146 10.8439 42.6037 7.06858 38.6429 7.06858L9.95614 7.06858C5.99533 7.06858 2.78445 10.8439 2.78445 15.5009Z" stroke="black" stroke-width="4" stroke-linecap="round" stroke-linejoin="round"/>
<path d="M27.5594 2L20.3877 2" stroke="black" stroke-width="4" stroke-linecap="round" stroke-linejoin="round"/>
<path d="M16.008 53V30.6H25.224C27.208 30.6 28.904 30.92 30.312 31.56C31.7413 32.2 32.84 33.1173 33.608 34.312C34.376 35.5067 34.76 36.9253 34.76 38.568C34.76 40.2107 34.376 41.6293 33.608 42.824C32.84 43.9973 31.7413 44.904 30.312 45.544C28.904 46.1627 27.208 46.472 25.224 46.472H18.312L20.168 44.584V53H16.008ZM30.664 53L25 44.872H29.448L35.144 53H30.664ZM20.168 45.032L18.312 43.048H25.032C26.8667 43.048 28.2427 42.6533 29.16 41.864C30.0987 41.0747 30.568 39.976 30.568 38.568C30.568 37.1387 30.0987 36.04 29.16 35.272C28.2427 34.504 26.8667 34.12 25.032 34.12H18.312L20.168 32.072V45.032Z" fill="black"/>
</svg>
