<svg width="81" height="69" viewBox="0 0 81 69" fill="none" xmlns="http://www.w3.org/2000/svg">
<path d="M4.16666 32.9379V52.6459C4.16666 56.7737 4.16666 58.8391 5.15669 60.4157C6.02754 61.8025 7.4161 62.929 9.12524 63.6356C11.0664 64.4381 13.6088 64.4381 18.686 64.4381H62.314C67.3912 64.4381 69.9299 64.4381 71.8711 63.6356C73.5802 62.929 74.9734 61.8025 75.8443 60.4157C76.8333 58.8406 76.8333 56.7785 76.8333 52.6588V32.9379C76.8333 30.9688 76.8312 29.9837 76.5362 29.0674C76.2747 28.2554 75.8454 27.487 75.2645 26.7926C74.609 26.009 73.6975 25.3592 71.8712 24.0626L50.0712 8.58488C46.6803 6.17742 44.9849 4.9743 43.0769 4.51644C41.3956 4.11301 39.6035 4.11301 37.9222 4.51644C36.0156 4.97395 34.3226 6.17593 30.9369 8.57976L9.12968 24.0626C7.30332 25.3592 6.39227 26.009 5.73673 26.7926C5.1558 27.487 4.72324 28.2554 4.46174 29.0674C4.16666 29.9837 4.16666 30.9688 4.16666 32.9379Z" stroke="#007AFF" stroke-width="7" stroke-linecap="round" stroke-linejoin="round"/>
</svg>
